<?xml version="1.0" encoding="UTF-8"?>
<svg width="384px" height="275px" viewBox="0 0 384 275" version="1.1" xmlns="http://www.w3.org/2000/svg" xmlns:xlink="http://www.w3.org/1999/xlink">
    <!-- Generator: Sketch 45.1 (43504) - http://www.bohemiancoding.com/sketch -->
    <title>FULL LOGO</title>
    <desc>Created with Sketch.</desc>
    <defs></defs>
    <g id="Page-1" stroke="none" stroke-width="1" fill="none" fill-rule="evenodd">
        <g id="FULL-LOGO">
            <path d="M34.8604504,114.462337 C35.2264479,113.72942 35.3638122,113.22698 35.3638122,112.907078 C35.3638122,112.311525 34.9065458,112.083814 33.3964602,112.083814 L31.7038368,112.083814 C30.1024823,112.083814 29.6913113,112.266352 29.6913113,112.860983 C29.6913113,113.318249 29.8738491,113.867706 30.3772109,114.919603 L32.5271008,119.310652 L34.8604504,114.462337 Z M11.1646447,115.926327 C9.5632902,112.449811 8.87739052,112.083814 5.40087482,112.083814 L5.40087482,110.847535 L18.6671334,110.847535 L18.6671334,112.083814 C16.3337838,112.176005 15.6939795,112.449811 15.6939795,113.5939 C15.6939795,114.462337 16.562417,116.52188 17.2031432,117.846662 L25.1628983,134.7268 L29.965118,124.799693 L25.7575291,115.926327 C24.0188103,112.220256 23.6076392,112.037719 20.58839,112.083814 L20.58839,110.847535 L42.042115,110.847535 L42.042115,112.083814 C38.8864233,112.129909 38.428235,112.495907 36.7356116,115.926327 L33.7624577,121.871713 L39.9383206,134.590358 L47.8519803,115.696772 C48.4014376,114.417164 48.53788,113.821611 48.53788,113.456535 C48.53788,112.449811 47.6694425,112.083814 45.1987286,112.083814 L45.1987286,110.847535 L55.0797403,110.847535 L55.0797403,112.083814 C52.5177575,112.129909 51.7405889,112.266352 49.7732369,116.979146 L40.1208584,140.034226 L37.1937999,140.034226 L31.2004749,127.407772 L25.1628983,140.034226 L22.3261869,140.034226 L11.1646447,115.926327 L11.1646447,115.926327 Z" id="Fill-1" fill="#FFFFFF"></path>
            <path d="M59.9280554,129.317965 L56.6340775,120.637278 L53.3742102,129.317965 L59.9280554,129.317965 Z M45.7574049,138.374791 C48.0566439,138.340681 48.5028474,137.96362 49.4634758,135.287321 L55.6734492,118.269818 L55.3987206,117.413365 L59.2412338,117.413365 L65.9315214,135.287321 C66.9262603,137.96362 67.2692101,138.374791 69.4310848,138.374791 L69.4310848,139.301309 L59.2412338,139.301309 L59.2412338,138.374791 C61.9516438,138.374791 62.7066866,138.100984 62.7066866,137.106245 C62.7066866,136.762374 62.5693223,136.179728 62.2263725,135.287321 L60.5798445,131.033636 L52.7224211,131.033636 L51.0417825,135.597082 C50.8011645,136.247949 50.6979108,136.695074 50.6979108,137.038024 C50.6979108,138.032763 51.3847324,138.478045 54.129253,138.374791 L54.129253,139.301309 L45.7574049,139.301309 L45.7574049,138.374791 L45.7574049,138.374791 Z" id="Fill-4" fill="#FFFFFF"></path>
            <path d="M69.088135,139.301309 L69.088135,138.374791 C71.8326556,138.374791 72.4153015,138.136017 72.4153015,135.424685 L72.4153015,121.837602 C72.4153015,119.506097 72.1756054,118.819275 69.088135,118.887496 L69.088135,117.9619 L80.3409461,117.9619 L80.3409461,118.887496 C76.6357971,118.887496 76.2237042,119.025782 76.2237042,121.598828 L76.2237042,136.077396 C76.2237042,137.483306 76.4984328,137.757113 78.0767396,137.757113 L81.6104136,137.757113 C84.5273311,137.757113 84.7329166,137.62067 87.3059623,134.122029 L88.3357337,134.122029 L85.6935449,139.301309 L69.088135,139.301309" id="Fill-6" fill="#FFFFFF"></path>
            <path d="M95.1237436,135.869967 C95.1237436,138.032763 95.4325828,138.340681 97.6626787,138.340681 C101.779921,138.340681 103.907685,137.449195 105.485069,135.869967 C107.577801,133.778157 108.161369,130.896272 108.161369,128.494701 C108.161369,126.023987 107.612834,123.246278 105.51918,121.151703 C103.803509,119.436953 101.642556,118.646878 97.6285681,118.646878 C97.0450002,118.646878 95.9811182,118.646878 95.1237436,118.716021 L95.1237436,135.869967 Z M91.3153409,121.907667 C91.3153409,119.402843 90.6635518,118.853386 88.0563955,118.887496 L88.0563955,117.9619 C89.0511345,117.9619 92.0021625,117.823614 93.4421831,117.755393 C95.2952185,117.68625 97.0450002,117.68625 98.3485783,117.68625 C103.52878,117.68625 107.268962,118.612768 109.362615,120.705499 C111.489457,122.832341 112.312721,125.441341 112.312721,128.015309 C112.312721,133.058147 108.779047,139.301309 98.7256388,139.301309 L88.0563955,139.301309 L88.0563955,138.374791 C90.9714692,138.374791 91.3153409,137.894477 91.3153409,135.597082 L91.3153409,121.907667 L91.3153409,121.907667 Z" id="Fill-8" fill="#FFFFFF"></path>
            <path d="M112.418741,139.301309 L112.418741,138.374791 C115.198294,138.374791 115.884194,137.928588 115.884194,136.008253 L115.884194,121.219924 C115.884194,118.956639 114.75209,118.887496 112.418741,118.887496 L112.418741,117.9619 L129.95159,117.9619 L130.259508,123.10707 L129.333912,123.10707 L129.162437,122.38706 C128.476537,119.574318 127.92708,119.506097 125.731095,119.506097 L119.693518,119.506097 L119.693518,127.499962 L125.010163,127.499962 C127.000562,127.499962 127.378545,127.258422 127.583208,124.891884 L128.510648,124.891884 L128.510648,131.787757 L127.583208,131.787757 C127.344434,129.352076 126.897309,129.044159 125.010163,129.044159 L119.693518,129.044159 L119.693518,135.287321 C119.693518,137.414163 119.967325,137.757113 121.717107,137.757113 L125.525509,137.757113 C128.99004,137.757113 129.67594,137.276798 130.603379,133.914599 L131.528975,133.914599 L131.015472,139.301309 L112.418741,139.301309" id="Fill-10" fill="#FFFFFF"></path>
            <path d="M138.392582,121.837602 L138.392582,135.013514 C138.392582,137.689813 138.736453,138.547188 141.824846,138.374791 L141.824846,139.301309 L133.624473,139.301309 L133.624473,138.374791 C136.095186,138.443934 136.505436,137.655703 136.505436,135.424685 L136.505436,119.986411 C135.682172,119.264557 134.928051,118.99075 133.624473,118.887496 L133.624473,117.9619 L139.834446,117.9619 L155.136278,134.122029 L155.136278,121.837602 C155.136278,119.264557 154.724185,118.853386 151.738124,118.887496 L151.738124,117.9619 L160.040829,117.9619 L160.040829,118.887496 C157.743434,118.887496 157.023424,119.298667 157.023424,121.907667 L157.023424,139.507816 L155.170388,139.507816 L138.392582,121.837602" id="Fill-12" fill="#FFFFFF"></path>
            <path d="M167.780248,110.847535 L180.770856,110.847535 L180.770856,112.083814 C177.386531,112.083814 176.746727,112.814887 176.746727,116.018518 L176.746727,128.323226 C176.746727,134.406898 180.817874,137.197514 186.534626,137.197514 C191.612496,137.197514 196.369543,135.002451 196.369543,128.231036 L196.369543,116.018518 C196.369543,112.449811 195.683643,112.083814 191.977572,112.083814 L191.977572,110.847535 L203.049689,110.847535 L203.049689,112.083814 C199.573173,112.083814 198.887274,112.814887 198.887274,116.018518 L198.887274,128.734397 C198.887274,135.916062 193.352137,140.034226 185.025462,140.034226 C176.334634,140.034226 171.669779,135.869967 171.669779,128.413573 L171.669779,115.561252 C171.669779,112.768792 170.936862,112.083814 167.780248,112.083814 L167.780248,110.847535" id="Fill-14" fill="#FFFFFF"></path>
            <path d="M206.648819,121.837602 L206.648819,135.013514 C206.648819,137.689813 206.991768,138.547188 210.079239,138.374791 L210.079239,139.301309 L201.879788,139.301309 L201.879788,138.374791 C204.34958,138.443934 204.762594,137.655703 204.762594,135.424685 L204.762594,119.986411 C203.937487,119.264557 203.183366,118.99075 201.879788,118.887496 L201.879788,117.9619 L208.089761,117.9619 L223.391593,134.122029 L223.391593,121.837602 C223.391593,119.264557 222.978578,118.853386 219.995283,118.887496 L219.995283,117.9619 L228.297988,117.9619 L228.297988,118.887496 C225.998749,118.887496 225.278739,119.298667 225.278739,121.907667 L225.278739,139.507816 L223.425703,139.507816 L206.648819,121.837602" id="Fill-17" fill="#FFFFFF"></path>
            <path d="M230.011815,117.9619 L239.583988,117.9619 L239.583988,118.887496 C237.286593,118.887496 236.634804,119.402843 236.634804,121.837602 L236.634804,135.184067 C236.634804,137.757113 237.115118,138.443934 239.583988,138.374791 L239.583988,139.301309 L230.011815,139.301309 L230.011815,138.374791 C232.724069,138.443934 232.826401,137.380052 232.826401,135.424685 L232.826401,121.461464 C232.826401,119.608428 232.380198,118.853386 230.011815,118.887496 L230.011815,117.9619" id="Fill-19" fill="#FFFFFF"></path>
            <path d="M242.825417,121.529685 C241.865711,119.162225 241.487728,118.887496 239.292665,118.887496 L239.292665,117.9619 L249.858654,117.9619 L249.858654,118.887496 C247.045913,118.922529 246.564677,119.642539 246.564677,120.363471 C246.564677,120.808753 246.736152,121.495574 247.114134,122.42117 L252.294336,135.149956 L257.338095,123.00566 C257.955774,121.529685 258.126327,120.876974 258.126327,120.363471 C258.126327,119.230446 257.235764,118.887496 255.038856,118.887496 L255.038856,117.9619 L263.377516,117.9619 L263.377516,118.887496 C260.940913,118.887496 260.494709,120.157886 259.395794,122.798231 L252.294336,139.849844 L250.202526,139.849844 L242.825417,121.529685" id="Fill-21" fill="#FFFFFF"></path>
            <path d="M261.866508,139.301309 L261.866508,138.374791 C264.64514,138.374791 265.331039,137.928588 265.331039,136.008253 L265.331039,121.219924 C265.331039,118.956639 264.199858,118.887496 261.866508,118.887496 L261.866508,117.9619 L279.399358,117.9619 L279.707275,123.10707 L278.781679,123.10707 L278.608361,122.38706 C277.922461,119.574318 277.374848,119.506097 275.17794,119.506097 L269.139442,119.506097 L269.139442,127.499962 L274.45793,127.499962 C276.447408,127.499962 276.826312,127.258422 277.030976,124.891884 L277.956572,124.891884 L277.956572,131.787757 L277.030976,131.787757 C276.79128,129.352076 276.345076,129.044159 274.45793,129.044159 L269.139442,129.044159 L269.139442,135.287321 C269.139442,137.414163 269.415092,137.757113 271.164874,137.757113 L274.973277,137.757113 C278.437808,137.757113 279.123707,137.276798 280.051147,133.914599 L280.975821,133.914599 L280.461396,139.301309 L261.866508,139.301309" id="Fill-23" fill="#FFFFFF"></path>
            <path d="M288.966921,129.48944 C289.208461,129.523551 289.86025,129.592694 290.065835,129.592694 C294.628359,129.386186 296.207588,127.635483 296.207588,124.136841 C296.207588,120.671389 294.354552,118.612768 290.615293,118.612768 C290.099946,118.612768 289.276682,118.681911 288.966921,118.750132 L288.966921,129.48944 Z M288.966921,134.978481 C288.966921,137.928588 289.345825,138.478045 292.467406,138.374791 L292.467406,139.301309 L281.968716,139.301309 L281.968716,138.374791 C284.851523,138.478045 285.15944,137.689813 285.15944,135.424685 L285.15944,121.667049 C285.15944,119.436953 284.78238,118.887496 281.968716,118.887496 L281.968716,117.9619 C282.758791,117.9619 284.507651,117.823614 286.875111,117.721282 C288.694036,117.653061 290.375597,117.653061 291.061496,117.653061 C297.99148,117.653061 300.358018,120.671389 300.358018,123.79297 C300.358018,126.331905 298.917076,128.18494 296.036113,129.386186 C296.583726,129.763247 298.060623,131.205111 298.609158,131.752725 L300.838332,133.983742 C303.892614,137.038024 306.225964,138.408902 309.072816,138.717741 L309.072816,139.678369 C302.313385,139.849844 300.633669,138.650442 297.545276,135.562049 L295.726352,133.743124 C293.97657,131.994265 293.461223,131.513951 292.021203,130.450068 C291.027386,130.519212 289.86025,130.553322 288.966921,130.450068 L288.966921,134.978481 L288.966921,134.978481 Z" id="Fill-25" fill="#FFFFFF"></path>
            <path d="M305.024717,133.673981 L306.053567,133.673981 C306.911863,136.830595 309.038706,138.616331 311.989734,138.616331 C314.494558,138.616331 316.242496,137.139434 316.242496,135.082657 C316.242496,130.278594 305.435888,128.391448 305.435888,122.42117 C305.435888,119.471986 308.043045,117.413365 311.714083,117.413365 C312.847108,117.413365 313.66945,117.550729 314.35535,117.68625 C315.042172,117.823614 315.590707,117.9619 316.174275,117.9619 C316.6214,117.9619 316.860174,117.858647 317.135825,117.550729 L317.9932,117.550729 L318.747321,122.867374 L317.719393,122.867374 C316.689621,120.157886 314.562779,118.511358 312.127098,118.511358 C309.930191,118.511358 308.764899,119.814014 308.764899,121.323178 C308.764899,125.920734 319.606539,127.292533 319.606539,133.914599 C319.606539,137.449195 316.6214,139.849844 312.22943,139.849844 C309.656384,139.849844 308.592502,139.233088 307.632796,139.233088 C307.219781,139.233088 306.945974,139.335419 306.705356,139.61107 L305.882092,139.61107 L305.024717,133.673981" id="Fill-27" fill="#FFFFFF"></path>
            <path d="M321.932513,117.9619 L331.504686,117.9619 L331.504686,118.887496 C329.205447,118.887496 328.553658,119.402843 328.553658,121.837602 L328.553658,135.184067 C328.553658,137.757113 329.033972,138.443934 331.504686,138.374791 L331.504686,139.301309 L321.932513,139.301309 L321.932513,138.374791 C324.642923,138.443934 324.745255,137.380052 324.745255,135.424685 L324.745255,121.461464 C324.745255,119.608428 324.300895,118.853386 321.932513,118.887496 L321.932513,117.9619" id="Fill-29" fill="#FFFFFF"></path>
            <path d="M333.907178,117.377411 L334.831852,117.377411 C334.969217,117.618951 335.071548,117.789504 335.38131,117.858647 C335.689227,117.926868 336.170463,117.9619 337.06287,117.9619 L351.57647,117.9619 C353.324408,117.9619 353.600059,117.892757 353.805644,117.377411 L354.730318,117.377411 L355.347997,123.279467 L354.35418,123.279467 C353.873866,119.71076 353.187966,119.506097 351.129345,119.506097 L346.22295,119.506097 L346.22295,135.665303 C346.22295,137.998653 346.600932,138.374791 350.201905,138.374791 L350.201905,139.301309 L338.435591,139.301309 L338.435591,138.374791 C341.86509,138.374791 342.414547,137.928588 342.414547,135.665303 L342.414547,119.506097 L337.508152,119.506097 C335.483641,119.506097 334.797742,119.71076 334.283317,123.279467 L333.2895,123.279467 L333.907178,117.377411" id="Fill-31" fill="#FFFFFF"></path>
            <path d="M359.104773,121.667049 C357.38818,119.196335 356.941976,118.99075 354.815134,118.887496 L354.815134,117.9619 L365.141427,117.9619 L365.141427,118.887496 C363.289314,118.887496 362.739856,119.264557 362.739856,119.882235 C362.739856,120.328439 363.015507,120.912007 363.906992,122.180552 L368.401295,128.597033 L372.313873,122.38706 C373.102104,121.118514 373.444132,120.431692 373.444132,119.951378 C373.444132,119.196335 372.792343,118.887496 371.249069,118.887496 L371.249069,117.9619 L379.313,117.9619 L379.313,118.887496 C376.808175,119.162225 376.190497,119.608428 373.993589,123.141181 L369.362845,130.622465 L369.362845,135.390574 C369.362845,137.928588 369.774938,138.374791 372.62179,138.374791 L372.62179,139.301309 L362.260464,139.301309 L362.260464,138.374791 C364.868542,138.374791 365.554442,138.136017 365.554442,135.287321 L365.554442,130.930383 L359.104773,121.667049" id="Fill-33" fill="#FFFFFF"></path>
            <path d="M21.9021091,146.077334 L372.62179,146.077334" id="Fill-36" fill="#FFFFFF"></path>
            <path d="M53.3299586,164.497981 L53.3299586,158.001294 L53.2801756,158.001294 L48.5756782,164.497981 L53.3299586,164.497981 Z M40.8344153,171.31918 C42.1287744,171.31918 42.9999776,170.720861 44.2196621,169.054051 L53.6784399,156.111382 L55.8440022,156.111382 L55.8440022,169.575851 C55.8440022,171.020481 56.217375,171.31918 58.0095645,171.31918 L57.8851069,171.990329 L50.6416744,171.990329 L50.766132,171.31918 C52.9565858,171.31918 53.3299586,170.720861 53.3299586,168.680678 L53.3299586,165.668804 L47.704475,165.668804 L45.6882618,168.430841 C44.8668416,169.55096 44.6179264,170.123465 44.6179264,170.34841 C44.6179264,171.119125 45.314889,171.31918 46.6092481,171.31918 L46.4847905,171.990329 L40.7099577,171.990329 L40.8344153,171.31918 L40.8344153,171.31918 Z" id="Fill-38" fill="#FFFFFF"></path>
            <path d="M65.2751228,172.264135 L68.2630271,157.677704 C68.3616713,157.230579 68.3377017,157.230579 68.3377017,157.130091 C68.3377017,156.882098 68.2372137,156.731827 68.0887865,156.731827 C67.8887324,156.731827 67.1429087,157.130091 66.718831,157.428789 L66.4450242,156.957694 C67.6656307,156.13443 69.7565184,155.288118 70.2285354,155.288118 C70.5023421,155.288118 70.6267997,155.463281 70.6267997,155.811762 C70.6267997,156.159322 70.5770167,156.458942 70.3281014,157.677704 L68.4372678,166.864519 L68.4861289,166.912458 C71.4233283,163.154761 73.0163857,161.711053 74.0120465,161.711053 C74.7090091,161.711053 75.0823819,162.232853 75.0823819,163.129869 C75.0823819,163.528134 75.0584123,163.876615 74.8583582,164.599391 L73.3906804,170.297705 C73.2911143,170.69597 73.364867,170.920915 73.5888906,170.920915 C73.8626974,170.920915 74.3605278,170.447054 75.5064596,169.028238 L75.9296155,169.403454 C74.5098769,171.219613 73.1657348,172.264135 72.2447485,172.264135 C71.6233824,172.264135 71.2241962,171.865871 71.2241962,171.245427 C71.2241962,170.920915 71.2241962,170.647108 71.4980029,169.575851 L72.6927959,164.94695 C72.8181754,164.450042 72.8679585,164.049934 72.8679585,163.826832 C72.8679585,163.577917 72.7674705,163.403676 72.5932298,163.403676 C71.8215927,163.403676 69.4568982,166.41555 68.1874307,168.133987 L67.3420409,172.264135 L65.2751228,172.264135" id="Fill-40" fill="#FFFFFF"></path>
            <path d="M82.3009228,157.403898 C82.3009228,158.574721 81.6288518,159.595273 80.8572146,159.595273 C80.2847097,159.595273 79.8864453,159.121413 79.8864453,158.450263 C79.8864453,157.330145 80.633191,156.283779 81.4048281,156.283779 C81.9524415,156.283779 82.3009228,156.731827 82.3009228,157.403898 Z M81.9026585,169.7252 C80.3344927,171.369884 79.2143743,172.264135 78.3680626,172.264135 C77.7955576,172.264135 77.4719678,171.916576 77.4719678,171.268475 C77.4719678,171.045373 77.5217509,170.571512 77.5964255,170.249766 L78.81611,164.299771 C78.865893,164.026886 78.915676,163.677483 78.6916524,163.677483 C78.4676287,163.677483 78.0693643,164.026886 77.3226187,164.797601 L76.9243544,164.299771 C78.915676,162.481768 79.8366623,161.711053 80.4838418,161.711053 C80.9318892,161.711053 81.1808044,161.984859 81.1808044,162.457798 C81.1808044,162.656008 81.1559129,162.954707 81.0812383,163.32808 L79.7370962,169.925254 C79.6873132,170.17417 79.6624217,170.249766 79.6624217,170.34841 C79.6624217,170.522651 79.7619877,170.647108 79.8864453,170.647108 C80.1851436,170.647108 80.8323231,169.975959 81.5043942,169.277153 L81.9026585,169.7252 L81.9026585,169.7252 Z" id="Fill-42" fill="#FFFFFF"></path>
            <path d="M89.146091,164.847384 C89.146091,163.30411 88.7478267,162.481768 87.951298,162.481768 C86.4826983,162.481768 85.4372544,165.519455 85.4372544,167.386319 C85.4372544,168.680678 85.9599764,169.502099 86.7813965,169.502099 C87.8766234,169.502099 89.146091,168.007685 89.146091,164.847384 Z M82.0022246,175.524925 C82.0022246,176.57129 83.2219091,177.217548 85.2639357,177.217548 C87.2045524,177.217548 88.5984775,176.769501 88.5984775,176.123243 C88.5984775,175.94808 88.523803,175.798731 88.2997793,175.57563 C87.7272743,175.003125 86.6071559,174.579969 84.6656173,172.961098 C82.8983193,173.733657 82.0022246,174.60486 82.0022246,175.524925 Z M90.7640398,163.054273 C91.1374126,163.826832 91.2867618,164.450042 91.2867618,165.121191 C91.2867618,165.916798 90.9880635,167.261862 89.9675112,168.281492 C88.3744539,169.874549 85.7359527,170.34841 85.7359527,170.969776 C85.7359527,171.742335 88.6233691,172.961098 89.818162,174.156813 C90.390667,174.729318 90.4902331,175.127582 90.4902331,175.375575 C90.4902331,176.820206 88.3246708,177.765161 85.0140986,177.765161 C82.0022246,177.765161 80.060686,176.994446 80.060686,175.798731 C80.060686,174.80307 81.255479,174.081216 84.317136,172.537942 C84.1180038,172.289027 84.0682208,172.114786 84.0682208,171.891685 C84.0682208,171.392932 84.4913766,170.946729 85.561712,170.323519 C84.8647495,170.074603 84.2922445,169.626556 83.9197936,169.078943 C83.5206073,168.506438 83.2965837,167.834367 83.2965837,167.087621 C83.2965837,164.473089 86.2586746,161.711053 89.096308,161.711053 C89.4447892,161.711053 89.768379,161.735944 90.3159925,161.83551 L92.1828565,161.83551 L92.1828565,163.203622 L90.7640398,163.054273 L90.7640398,163.054273 Z" id="Fill-44" fill="#FFFFFF"></path>
            <path d="M92.6309039,172.264135 L95.6178863,157.677704 C95.7174524,157.230579 95.6925609,157.230579 95.6925609,157.130091 C95.6925609,156.882098 95.5929948,156.731827 95.4436457,156.731827 C95.2445135,156.731827 94.4977679,157.130091 94.0746121,157.428789 L93.8008053,156.957694 C95.0204898,156.13443 97.1113776,155.288118 97.5843165,155.288118 C97.8581232,155.288118 97.9825808,155.463281 97.9825808,155.811762 C97.9825808,156.159322 97.9327978,156.458942 97.6838825,157.677704 L95.792127,166.864519 L95.84191,166.912458 C98.7791095,163.154761 100.372167,161.711053 101.367828,161.711053 C102.06479,161.711053 102.438163,162.232853 102.438163,163.129869 C102.438163,163.528134 102.413271,163.876615 102.214139,164.599391 L100.74554,170.297705 C100.645973,170.69597 100.720648,170.920915 100.944672,170.920915 C101.218478,170.920915 101.716309,170.447054 102.861319,169.028238 L103.284475,169.403454 C101.865658,171.219613 100.521516,172.264135 99.6005296,172.264135 C98.9782416,172.264135 98.5799773,171.865871 98.5799773,171.245427 C98.5799773,170.920915 98.5799773,170.647108 98.853784,169.575851 L100.048577,164.94695 C100.173035,164.450042 100.222818,164.049934 100.222818,163.826832 C100.222818,163.577917 100.123252,163.403676 99.9490109,163.403676 C99.1773738,163.403676 96.8126793,166.41555 95.5432118,168.133987 L94.6969001,172.264135 L92.6309039,172.264135" id="Fill-47" fill="#FFFFFF"></path>
            <path d="M110.57769,163.453459 C110.57769,162.780466 110.303883,162.35731 109.855836,162.35731 C108.734796,162.35731 107.714243,163.925476 106.918637,166.813814 C109.406867,166.016364 110.57769,164.94695 110.57769,163.453459 Z M111.623134,170.422163 C110.253179,171.567173 108.560555,172.264135 107.216413,172.264135 C105.474928,172.264135 104.35481,170.969776 104.35481,168.980299 C104.35481,165.245649 107.315979,161.711053 110.453233,161.711053 C111.771561,161.711053 112.617873,162.334263 112.617873,163.30411 C112.617873,165.096299 110.353667,166.365767 106.793257,167.411211 C106.643908,167.834367 106.570155,168.357089 106.570155,168.853997 C106.570155,170.297705 107.341793,171.245427 108.485881,171.245427 C109.233548,171.245427 110.129643,170.822271 111.324436,169.975959 L111.623134,170.422163 L111.623134,170.422163 Z" id="Fill-49" fill="#FFFFFF"></path>
            <path d="M113.765649,164.199283 C115.234248,162.531551 116.303662,161.711053 117.001546,161.711053 C117.473563,161.711053 117.748292,162.058612 117.748292,162.608069 C117.748292,163.428568 117.424702,164.971842 117.224648,165.742557 L116.453933,168.655787 L116.701926,168.655787 L117.748292,165.891906 C118.743031,163.254327 119.83918,161.711053 120.933485,161.711053 C121.457129,161.711053 121.754905,162.058612 121.754905,162.681822 C121.754905,163.428568 121.331749,164.026886 120.809949,164.026886 C120.536142,164.026886 120.211631,163.876615 119.963637,163.876615 C119.391132,163.876615 118.768844,164.523794 118.022099,166.588869 L116.477902,170.845319 C116.054747,172.041034 116.329475,172.264135 115.78094,172.264135 L114.512394,172.264135 C114.113208,172.264135 114.038533,172.091739 114.163913,171.519234 L115.657404,164.199283 C115.732079,163.801018 115.682296,163.553025 115.45735,163.553025 C115.283109,163.553025 114.736418,164.026886 114.188804,164.622439 L113.765649,164.199283" id="Fill-51" fill="#FFFFFF"></path>
            <path d="M134.07252,164.100639 C133.675177,163.079164 133.176425,162.582256 132.530168,162.582256 C132.230547,162.582256 131.833205,162.757418 131.533585,163.054273 C130.438358,164.150422 129.616938,166.838706 129.616938,168.954485 C129.616938,170.02482 129.841883,170.69597 130.239226,170.69597 C130.611677,170.69597 131.982554,169.302044 133.44931,167.161374 L134.07252,164.100639 Z M136.810587,169.600743 C135.566011,171.268475 134.321435,172.264135 133.525828,172.264135 C133.002185,172.264135 132.679517,171.942389 132.679517,171.344071 C132.679517,170.87021 133.002185,169.377641 133.176425,168.58019 L133.126642,168.531329 C131.259778,171.144017 129.991232,172.264135 128.895084,172.264135 C128.048772,172.264135 127.401592,171.020481 127.401592,169.377641 C127.401592,164.996733 131.136242,161.711053 132.953323,161.711053 C133.525828,161.711053 133.923171,161.911107 134.421001,162.432907 L135.341987,157.90265 C135.54112,156.906989 135.491337,156.706935 135.218452,156.706935 C135.018398,156.706935 134.271652,157.130091 133.525828,157.653735 L133.299961,157.130091 C134.918832,156.060677 136.611455,155.288118 137.308418,155.288118 C137.607116,155.288118 137.731573,155.463281 137.731573,155.811762 C137.731573,156.035786 137.706682,156.408237 137.582224,156.980742 L135.068181,169.302044 C134.993506,169.700309 134.869049,170.199061 134.869049,170.34841 C134.869049,170.472868 134.968615,170.622217 135.068181,170.622217 C135.242421,170.622217 135.914492,169.925254 136.387431,169.228292 L136.810587,169.600743 L136.810587,169.600743 Z" id="Fill-53" fill="#FFFFFF"></path>
            <path d="M144.477175,163.453459 C144.477175,162.780466 144.203369,162.35731 143.755321,162.35731 C142.634281,162.35731 141.614651,163.925476 140.818122,166.813814 C143.307274,166.016364 144.477175,164.94695 144.477175,163.453459 Z M145.522619,170.422163 C144.153586,171.567173 142.460962,172.264135 141.11682,172.264135 C139.374414,172.264135 138.254295,170.969776 138.254295,168.980299 C138.254295,165.245649 141.215464,161.711053 144.352718,161.711053 C145.671968,161.711053 146.51828,162.334263 146.51828,163.30411 C146.51828,165.096299 144.253152,166.365767 140.693664,167.411211 C140.544315,167.834367 140.470563,168.357089 140.470563,168.853997 C140.470563,170.297705 141.241278,171.245427 142.386288,171.245427 C143.133955,171.245427 144.029128,170.822271 145.223921,169.975959 L145.522619,170.422163 L145.522619,170.422163 Z" id="Fill-55" fill="#FFFFFF"></path>
            <path d="M153.08872,164.847384 C153.08872,163.30411 152.691377,162.481768 151.893927,162.481768 C150.426249,162.481768 149.380805,165.519455 149.380805,167.386319 C149.380805,168.680678 149.903527,169.502099 150.724947,169.502099 C151.819252,169.502099 153.08872,168.007685 153.08872,164.847384 Z M145.945775,175.524925 C145.945775,176.57129 147.16546,177.217548 149.206564,177.217548 C151.148103,177.217548 152.542028,176.769501 152.542028,176.123243 C152.542028,175.94808 152.466432,175.798731 152.242408,175.57563 C151.669903,175.003125 150.549785,174.579969 148.609168,172.961098 C146.840948,173.733657 145.945775,174.60486 145.945775,175.524925 Z M154.70759,163.054273 C155.080041,163.826832 155.22939,164.450042 155.22939,165.121191 C155.22939,165.916798 154.930692,167.261862 153.91014,168.281492 C152.317083,169.874549 149.678581,170.34841 149.678581,170.969776 C149.678581,171.742335 152.56692,172.961098 153.761713,174.156813 C154.333296,174.729318 154.433784,175.127582 154.433784,175.375575 C154.433784,176.820206 152.268221,177.765161 148.957649,177.765161 C145.945775,177.765161 144.004237,176.994446 144.004237,175.798731 C144.004237,174.80307 145.19903,174.081216 148.259765,172.537942 C148.061554,172.289027 148.011771,172.114786 148.011771,171.891685 C148.011771,171.392932 148.434927,170.946729 149.505263,170.323519 C148.8083,170.074603 148.235795,169.626556 147.8615,169.078943 C147.464158,168.506438 147.240134,167.834367 147.240134,167.087621 C147.240134,164.473089 150.201303,161.711053 153.039859,161.711053 C153.38834,161.711053 153.71193,161.735944 154.259543,161.83551 L156.126407,161.83551 L156.126407,163.203622 L154.70759,163.054273 L154.70759,163.054273 Z" id="Fill-57" fill="#FFFFFF"></path>
            <path d="M156.399292,164.199283 C157.867892,162.531551 158.937305,161.711053 159.636112,161.711053 C160.108128,161.711053 160.381935,162.058612 160.381935,162.608069 C160.381935,163.428568 160.059267,164.971842 159.859213,165.742557 L159.087576,168.655787 L159.337413,168.655787 L160.381935,165.891906 C161.377596,163.254327 162.471901,161.711053 163.568972,161.711053 C164.090772,161.711053 164.390392,162.058612 164.390392,162.681822 C164.390392,163.428568 163.967236,164.026886 163.444514,164.026886 C163.170707,164.026886 162.847118,163.876615 162.598202,163.876615 C162.025697,163.876615 161.402488,164.523794 160.655742,166.588869 L159.112468,170.845319 C158.689312,172.041034 158.963119,172.264135 158.415505,172.264135 L157.146038,172.264135 C156.747773,172.264135 156.672177,172.091739 156.798478,171.519234 L158.291047,164.199283 C158.366644,163.801018 158.316861,163.553025 158.090993,163.553025 C157.918597,163.553025 157.370983,164.026886 156.822448,164.622439 L156.399292,164.199283" id="Fill-60" fill="#FFFFFF"></path>
            <path d="M170.263869,163.453459 C170.263869,162.780466 169.990062,162.35731 169.542937,162.35731 C168.421896,162.35731 167.402266,163.925476 166.604815,166.813814 C169.094889,166.016364 170.263869,164.94695 170.263869,163.453459 Z M171.309313,170.422163 C169.941201,171.567173 168.248578,172.264135 166.903514,172.264135 C165.160185,172.264135 164.040989,170.969776 164.040989,168.980299 C164.040989,165.245649 167.00308,161.711053 170.139411,161.711053 C171.458662,161.711053 172.304974,162.334263 172.304974,163.30411 C172.304974,165.096299 170.039845,166.365767 166.480358,167.411211 C166.331009,167.834367 166.257256,168.357089 166.257256,168.853997 C166.257256,170.297705 167.027971,171.245427 168.172981,171.245427 C168.920649,171.245427 169.816743,170.822271 171.010615,169.975959 L171.309313,170.422163 L171.309313,170.422163 Z" id="Fill-62" fill="#FFFFFF"></path>
            <path d="M178.999871,163.453459 C178.999871,162.780466 178.726064,162.35731 178.27986,162.35731 C177.157898,162.35731 176.13919,163.925476 175.340817,166.813814 C177.831813,166.016364 178.999871,164.94695 178.999871,163.453459 Z M180.046236,170.422163 C178.678125,171.567173 176.985501,172.264135 175.640437,172.264135 C173.897109,172.264135 172.776991,170.969776 172.776991,168.980299 C172.776991,165.245649 175.739082,161.711053 178.875413,161.711053 C180.195586,161.711053 181.041897,162.334263 181.041897,163.30411 C181.041897,165.096299 178.776769,166.365767 175.217281,167.411211 C175.067932,167.834367 174.993258,168.357089 174.993258,168.853997 C174.993258,170.297705 175.763973,171.245427 176.909905,171.245427 C177.65665,171.245427 178.552745,170.822271 179.747538,169.975959 L180.046236,170.422163 L180.046236,170.422163 Z" id="Fill-64" fill="#FFFFFF"></path>
            <path d="M184.750734,170.447054 C184.750734,171.442715 184.052849,172.264135 183.206538,172.264135 C182.509575,172.264135 182.012667,171.716522 182.012667,170.920915 C182.012667,169.950146 182.759412,169.103834 183.580832,169.103834 C184.251982,169.103834 184.750734,169.676339 184.750734,170.447054" id="Fill-66" fill="#FFFFFF"></path>
            <path d="M204.515523,164.497981 L204.515523,158.001294 L204.464818,158.001294 L199.762165,164.497981 L204.515523,164.497981 Z M192.019058,171.31918 C193.314339,171.31918 194.185542,170.720861 195.404305,169.054051 L204.864926,156.111382 L207.029567,156.111382 L207.029567,169.575851 C207.029567,171.020481 207.403861,171.31918 209.195129,171.31918 L209.070671,171.990329 L201.827239,171.990329 L201.951696,171.31918 C204.143072,171.31918 204.515523,170.720861 204.515523,168.680678 L204.515523,165.668804 L198.890039,165.668804 L196.873826,168.430841 C196.052406,169.55096 195.804413,170.123465 195.804413,170.34841 C195.804413,171.119125 196.501375,171.31918 197.795734,171.31918 L197.669433,171.990329 L191.895522,171.990329 L192.019058,171.31918 L192.019058,171.31918 Z" id="Fill-68" fill="#FFFFFF"></path>
            <path d="M216.461609,172.264135 L219.448592,157.677704 C219.548158,157.230579 219.522344,157.230579 219.522344,157.130091 C219.522344,156.882098 219.4237,156.731827 219.274351,156.731827 C219.074297,156.731827 218.328473,157.130091 217.905317,157.428789 L217.631511,156.957694 C218.851195,156.13443 220.941161,155.288118 221.415022,155.288118 C221.688828,155.288118 221.813286,155.463281 221.813286,155.811762 C221.813286,156.159322 221.762581,156.458942 221.513666,157.677704 L219.623754,166.864519 L219.671693,166.912458 C222.608893,163.154761 224.20195,161.711053 225.198533,161.711053 C225.894574,161.711053 226.267946,162.232853 226.267946,163.129869 C226.267946,163.528134 226.243977,163.876615 226.043923,164.599391 L224.577167,170.297705 C224.475757,170.69597 224.551353,170.920915 224.775377,170.920915 C225.048262,170.920915 225.547014,170.447054 226.691102,169.028238 L227.114258,169.403454 C225.697285,171.219613 224.352221,172.264135 223.431235,172.264135 C222.808947,172.264135 222.410683,171.865871 222.410683,171.245427 C222.410683,170.920915 222.410683,170.647108 222.684489,169.575851 L223.87836,164.94695 C224.004662,164.450042 224.052601,164.049934 224.052601,163.826832 C224.052601,163.577917 223.953957,163.403676 223.778794,163.403676 C223.009001,163.403676 220.642463,166.41555 219.372995,168.133987 L218.526683,172.264135 L216.461609,172.264135" id="Fill-70" fill="#FFFFFF"></path>
            <path d="M233.562084,157.403898 C233.562084,158.574721 232.890013,159.595273 232.117454,159.595273 C231.544949,159.595273 231.147606,159.121413 231.147606,158.450263 C231.147606,157.330145 231.894352,156.283779 232.665067,156.283779 C233.212681,156.283779 233.562084,156.731827 233.562084,157.403898 Z M233.163819,169.7252 C231.595654,171.369884 230.475535,172.264135 229.629224,172.264135 C229.056719,172.264135 228.732207,171.916576 228.732207,171.268475 C228.732207,171.045373 228.782912,170.571512 228.856664,170.249766 L230.076349,164.299771 C230.126132,164.026886 230.176837,163.677483 229.951891,163.677483 C229.72879,163.677483 229.330525,164.026886 228.582858,164.797601 L228.185515,164.299771 C230.176837,162.481768 231.096901,161.711053 231.745003,161.711053 C232.191206,161.711053 232.441965,161.984859 232.441965,162.457798 C232.441965,162.656008 232.417074,162.954707 232.341477,163.32808 L230.998257,169.925254 C230.947552,170.17417 230.921739,170.249766 230.921739,170.34841 C230.921739,170.522651 231.023149,170.647108 231.147606,170.647108 C231.446305,170.647108 232.092562,169.975959 232.764633,169.277153 L233.163819,169.7252 L233.163819,169.7252 Z" id="Fill-72" fill="#FFFFFF"></path>
            <path d="M240.481926,164.847384 C240.481926,163.30411 240.081818,162.481768 239.286212,162.481768 C237.818534,162.481768 236.772168,165.519455 236.772168,167.386319 C236.772168,168.680678 237.29489,169.502099 238.115388,169.502099 C239.212459,169.502099 240.481926,168.007685 240.481926,164.847384 Z M233.337138,175.524925 C233.337138,176.57129 234.557745,177.217548 236.597927,177.217548 C238.538544,177.217548 239.934313,176.769501 239.934313,176.123243 C239.934313,175.94808 239.858717,175.798731 239.635615,175.57563 C239.06311,175.003125 237.942991,174.579969 235.999609,172.961098 C234.233233,173.733657 233.337138,174.60486 233.337138,175.524925 Z M242.098953,163.054273 C242.473248,163.826832 242.622597,164.450042 242.622597,165.121191 C242.622597,165.916798 242.323899,167.261862 241.302425,168.281492 C239.709367,169.874549 237.070866,170.34841 237.070866,170.969776 C237.070866,171.742335 239.957361,172.961098 241.153076,174.156813 C241.725581,174.729318 241.825147,175.127582 241.825147,175.375575 C241.825147,176.820206 239.658663,177.765161 236.349012,177.765161 C233.337138,177.765161 231.3956,176.994446 231.3956,175.798731 C231.3956,174.80307 232.589471,174.081216 235.65205,172.537942 C235.452917,172.289027 235.404056,172.114786 235.404056,171.891685 C235.404056,171.392932 235.827212,170.946729 236.896626,170.323519 C236.199663,170.074603 235.627158,169.626556 235.254707,169.078943 C234.854599,168.506438 234.631497,167.834367 234.631497,167.087621 C234.631497,164.473089 237.593588,161.711053 240.431222,161.711053 C240.780625,161.711053 241.102371,161.735944 241.649984,161.83551 L243.51777,161.83551 L243.51777,163.203622 L242.098953,163.054273 L242.098953,163.054273 Z" id="Fill-74" fill="#FFFFFF"></path>
            <path d="M244.03957,172.264135 L247.026553,157.677704 C247.126119,157.230579 247.102149,157.230579 247.102149,157.130091 C247.102149,156.882098 247.001661,156.731827 246.852312,156.731827 C246.654102,156.731827 245.907356,157.130091 245.483278,157.428789 L245.210393,156.957694 C246.429156,156.13443 248.520966,155.288118 248.992983,155.288118 C249.266789,155.288118 249.391247,155.463281 249.391247,155.811762 C249.391247,156.159322 249.342386,156.458942 249.094393,157.677704 L247.201715,166.864519 L247.251498,166.912458 C250.188698,163.154761 251.781755,161.711053 252.778338,161.711053 C253.474378,161.711053 253.847751,162.232853 253.847751,163.129869 C253.847751,163.528134 253.821938,163.876615 253.624649,164.599391 L252.155128,170.297705 C252.055562,170.69597 252.130236,170.920915 252.355182,170.920915 C252.628067,170.920915 253.124975,170.447054 254.270907,169.028238 L254.694063,169.403454 C253.275246,171.219613 251.932026,172.264135 251.010118,172.264135 C250.386908,172.264135 249.988644,171.865871 249.988644,171.245427 C249.988644,170.920915 249.988644,170.647108 250.26245,169.575851 L251.458165,164.94695 C251.582623,164.450042 251.632406,164.049934 251.632406,163.826832 C251.632406,163.577917 251.531918,163.403676 251.359521,163.403676 C250.586962,163.403676 248.222267,166.41555 246.9528,168.133987 L246.106488,172.264135 L244.03957,172.264135" id="Fill-77" fill="#FFFFFF"></path>
            <path d="M262.061953,163.453459 C262.061953,162.780466 261.788146,162.35731 261.340099,162.35731 C260.21998,162.35731 259.198506,163.925476 258.402899,166.813814 C260.89113,166.016364 262.061953,164.94695 262.061953,163.453459 Z M263.106475,170.422163 C261.737441,171.567173 260.044818,172.264135 258.701598,172.264135 C256.959191,172.264135 255.839073,170.969776 255.839073,168.980299 C255.839073,165.245649 258.801164,161.711053 261.937495,161.711053 C263.255824,161.711053 264.102136,162.334263 264.102136,163.30411 C264.102136,165.096299 261.837007,166.365767 258.278442,167.411211 C258.129093,167.834367 258.053496,168.357089 258.053496,168.853997 C258.053496,170.297705 258.826055,171.245427 259.971065,171.245427 C260.716889,171.245427 261.613906,170.822271 262.808699,169.975959 L263.106475,170.422163 L263.106475,170.422163 Z" id="Fill-79" fill="#FFFFFF"></path>
            <path d="M265.323664,164.199283 C266.793186,162.531551 267.862599,161.711053 268.559562,161.711053 C269.032501,161.711053 269.306307,162.058612 269.306307,162.608069 C269.306307,163.428568 268.982718,164.971842 268.784507,165.742557 L268.011948,168.655787 L268.259942,168.655787 L269.306307,165.891906 C270.301968,163.254327 271.397195,161.711053 272.4915,161.711053 C273.016066,161.711053 273.314764,162.058612 273.314764,162.681822 C273.314764,163.428568 272.891608,164.026886 272.367964,164.026886 C272.094158,164.026886 271.769646,163.876615 271.521653,163.876615 C270.949148,163.876615 270.327782,164.523794 269.580114,166.588869 L268.03684,170.845319 C267.613684,172.041034 267.887491,172.264135 267.340799,172.264135 L266.07041,172.264135 C265.673067,172.264135 265.597471,172.091739 265.721928,171.519234 L267.216341,164.199283 C267.290094,163.801018 267.239389,163.553025 267.016287,163.553025 C266.841125,163.553025 266.294433,164.026886 265.74682,164.622439 L265.323664,164.199283" id="Fill-81" fill="#FFFFFF"></path>
            <path d="M281.523434,170.845319 C282.121753,171.344071 282.544909,171.519234 283.066709,171.519234 C284.933573,171.519234 286.476847,168.780244 286.476847,165.46875 C286.476847,164.199283 286.20304,163.377863 285.730101,163.377863 C285.331837,163.377863 284.511339,164.049934 282.344855,166.813814 L281.523434,170.845319 Z M275.948656,177.765161 L276.073113,177.09309 C277.790628,177.09309 278.237754,176.869989 278.736506,174.43062 L280.776689,164.348632 C280.877177,163.876615 280.80158,163.651669 280.652231,163.651669 C280.429129,163.651669 279.881516,164.176235 279.060096,165.146082 L278.587157,164.771788 C280.079726,162.954707 281.623,161.711053 282.420451,161.711053 C282.868498,161.711053 283.142305,162.058612 283.142305,162.631117 C283.142305,162.831171 283.117414,163.030303 283.041817,163.403676 L282.618661,165.445703 L282.668444,165.493642 C284.211719,163.32808 286.079505,161.711053 286.950708,161.711053 C287.895664,161.711053 288.692192,163.32808 288.692192,165.27054 C288.692192,168.58019 285.979938,172.264135 282.494204,172.264135 C282.071048,172.264135 281.74838,172.239244 281.275441,172.139678 L280.677123,174.977311 C280.578478,175.500033 280.527774,175.849436 280.527774,176.072538 C280.527774,176.845097 281.001634,177.09309 282.445343,177.09309 L282.321807,177.765161 L275.948656,177.765161 L275.948656,177.765161 Z" id="Fill-83" fill="#FFFFFF"></path>
            <path d="M300.665936,169.426502 C299.495112,170.746675 297.977651,172.264135 297.182045,172.264135 C296.733075,172.264135 296.485082,171.891685 296.485082,171.268475 C296.485082,170.822271 296.558835,170.148356 296.758889,169.177587 L297.354441,166.390658 L297.30558,166.339954 C295.189801,169.600743 292.127222,172.264135 291.38232,172.264135 C290.933351,172.264135 290.659544,171.792118 290.659544,171.070264 C290.659544,170.647108 290.708405,170.148356 290.784002,169.775905 L291.90412,164.274879 C291.977873,163.951289 291.954825,163.677483 291.779663,163.677483 C291.605422,163.677483 291.232049,164.001072 290.609761,164.797601 L290.186605,164.450042 C291.531669,162.757418 292.775324,161.711053 293.472286,161.711053 C293.921255,161.711053 294.219954,162.083503 294.219954,162.656008 C294.219954,162.904924 294.169249,163.403676 294.044791,163.976181 L292.924673,169.426502 C292.801137,170.02482 292.899781,170.297705 293.074944,170.297705 C293.224293,170.297705 293.695388,169.975959 293.921255,169.751014 C295.53736,168.133987 297.229984,165.793262 297.678953,164.64733 L298.200753,162.283558 C298.301241,161.809697 298.350102,161.711053 298.724397,161.711053 L299.768919,161.711053 C300.293485,161.711053 300.341424,161.860402 300.267671,162.283558 L298.75021,169.775905 C298.674614,170.148356 298.724397,170.34841 298.823963,170.34841 C299.071956,170.34841 299.495112,169.950146 300.267671,169.028238 L300.665936,169.426502" id="Fill-86" fill="#FFFFFF"></path>
            <path d="M301.712301,164.199283 C303.179979,162.531551 304.251236,161.711053 304.947277,161.711053 C305.419294,161.711053 305.693101,162.058612 305.693101,162.608069 C305.693101,163.428568 305.370433,164.971842 305.171301,165.742557 L304.400586,168.655787 L304.648579,168.655787 L305.693101,165.891906 C306.688762,163.254327 307.785832,161.711053 308.880137,161.711053 C309.402859,161.711053 309.701558,162.058612 309.701558,162.681822 C309.701558,163.428568 309.278402,164.026886 308.75568,164.026886 C308.481873,164.026886 308.158283,163.876615 307.909368,163.876615 C307.336863,163.876615 306.713653,164.523794 305.966908,166.588869 L304.423633,170.845319 C304.000477,172.041034 304.274284,172.264135 303.726671,172.264135 L302.457203,172.264135 C302.059861,172.264135 301.986108,172.091739 302.109644,171.519234 L303.602213,164.199283 C303.67781,163.801018 303.628027,163.553025 303.404925,163.553025 C303.229762,163.553025 302.682149,164.026886 302.135457,164.622439 L301.712301,164.199283" id="Fill-88" fill="#FFFFFF"></path>
            <path d="M312.6111,170.845319 C313.208496,171.344071 313.631652,171.519234 314.154374,171.519234 C316.021238,171.519234 317.564512,168.780244 317.564512,165.46875 C317.564512,164.199283 317.290706,163.377863 316.816845,163.377863 C316.419502,163.377863 315.598082,164.049934 313.43252,166.813814 L312.6111,170.845319 Z M307.036321,177.765161 L307.160779,177.09309 C308.878294,177.09309 309.324497,176.869989 309.824171,174.43062 L311.863432,164.348632 C311.964842,163.876615 311.889246,163.651669 311.739897,163.651669 C311.515873,163.651669 310.969181,164.176235 310.147761,165.146082 L309.6739,164.771788 C311.167392,162.954707 312.709744,161.711053 313.508116,161.711053 C313.956164,161.711053 314.22997,162.058612 314.22997,162.631117 C314.22997,162.831171 314.204157,163.030303 314.128561,163.403676 L313.705405,165.445703 L313.75611,165.493642 C315.299384,163.32808 317.166248,161.711053 318.038373,161.711053 C318.983329,161.711053 319.778936,163.32808 319.778936,165.27054 C319.778936,168.58019 317.067604,172.264135 313.581869,172.264135 C313.158713,172.264135 312.836045,172.239244 312.362185,172.139678 L311.764788,174.977311 C311.666144,175.500033 311.615439,175.849436 311.615439,176.072538 C311.615439,176.845097 312.0893,177.09309 313.533008,177.09309 L313.40855,177.765161 L307.036321,177.765161 L307.036321,177.765161 Z" id="Fill-90" fill="#FFFFFF"></path>
            <path d="M324.623563,163.203622 C323.579041,164.249988 322.981645,166.71517 322.981645,168.232631 C322.981645,170.123465 323.75236,171.293366 324.575624,171.293366 C324.972966,171.293366 325.271665,171.144017 325.645037,170.771566 C326.66559,169.751014 327.286956,167.635234 327.286956,165.767449 C327.286956,163.702374 326.465536,162.681822 325.794387,162.681822 C325.444983,162.681822 324.972966,162.856063 324.623563,163.203622 Z M329.503223,165.419889 C329.503223,169.626556 325.221882,172.264135 323.329204,172.264135 C321.836635,172.264135 320.765377,170.746675 320.765377,168.605082 C320.765377,164.348632 324.948075,161.711053 327.013149,161.711053 C328.456857,161.711053 329.503223,163.279218 329.503223,165.419889 L329.503223,165.419889 Z" id="Fill-93" fill="#FFFFFF"></path>
            <path d="M335.123175,161.711053 C336.293077,161.711053 337.114497,162.408015 337.114497,163.403676 C337.114497,164.100639 336.66645,164.622439 336.04324,164.622439 C334.824477,164.622439 335.123175,162.681822 334.101701,162.681822 C333.55501,162.681822 332.982505,163.30411 332.982505,163.876615 C332.982505,165.319401 335.845029,166.912458 335.845029,169.054051 C335.845029,170.896024 334.051918,172.264135 331.613471,172.264135 C329.944817,172.264135 329.024753,171.767227 329.024753,170.87021 C329.024753,170.297705 329.4728,169.874549 330.070197,169.874549 C331.339664,169.874549 332.110379,171.31918 333.255389,171.31918 C333.853708,171.31918 334.251972,170.946729 334.251972,170.373302 C334.251972,168.878889 331.190315,166.988055 331.190315,165.194944 C331.190315,163.876615 333.181637,161.711053 335.123175,161.711053" id="Fill-95" fill="#FFFFFF"></path>
            <path d="M343.863787,163.453459 C343.863787,162.780466 343.58998,162.35731 343.141933,162.35731 C342.021814,162.35731 341.001262,163.925476 340.205655,166.813814 C342.693885,166.016364 343.863787,164.94695 343.863787,163.453459 Z M344.908309,170.422163 C343.540197,171.567173 341.847574,172.264135 340.504353,172.264135 C338.761025,172.264135 337.640907,170.969776 337.640907,168.980299 C337.640907,165.245649 340.602997,161.711053 343.740251,161.711053 C345.057658,161.711053 345.903969,162.334263 345.903969,163.30411 C345.903969,165.096299 343.638841,166.365767 340.081197,167.411211 C339.931848,167.834367 339.856252,168.357089 339.856252,168.853997 C339.856252,170.297705 340.628811,171.245427 341.773821,171.245427 C342.518723,171.245427 343.415739,170.822271 344.611454,169.975959 L344.908309,170.422163 L344.908309,170.422163 Z" id="Fill-97" fill="#FFFFFF"></path>
            <path d="M349.613728,170.447054 C349.613728,171.442715 348.916765,172.264135 348.070454,172.264135 C347.373491,172.264135 346.874739,171.716522 346.874739,170.920915 C346.874739,169.950146 347.622406,169.103834 348.442905,169.103834 C349.114976,169.103834 349.613728,169.676339 349.613728,170.447054" id="Fill-99" fill="#FFFFFF"></path>
            <path d="M349.613728,170.447054 C349.613728,171.442715 348.916765,172.264135 348.070454,172.264135 C347.373491,172.264135 346.874739,171.716522 346.874739,170.920915 C346.874739,169.950146 347.622406,169.103834 348.442905,169.103834 C349.114976,169.103834 349.613728,169.676339 349.613728,170.447054 Z" id="Stroke-100" stroke="#FFFFFF" stroke-width="0.5"></path>
            <rect id="Rectangle" fill="#FFFFFF" x="19" y="145.077334" width="353" height="1.75"></rect>
        </g>
    </g>
</svg>