<svg aria-hidden="true" style="position: absolute; width: 0; height: 0; overflow: hidden;" version="1.1" xmlns="http://www.w3.org/2000/svg" xmlns:xlink="http://www.w3.org/1999/xlink">
<defs>
<symbol id="icon-computer-nodata" viewBox="0 0 80 80">
<title>icon-computer-nodata</title>
<path d="M40 80c-22.091 0-40-17.909-40-40s17.909-40 40-40c22.091 0 40 17.909 40 40s-17.909 40-40 40zM40 76.8c20.324 0 36.8-16.476 36.8-36.8s-16.476-36.8-36.8-36.8c-20.324 0-36.8 16.476-36.8 36.8s16.476 36.8 36.8 36.8z"></path>
<path d="M22.633 20.64v21.12h38.333v-21.12h-38.333zM22.633 16.8h38.333c2.117 0 3.833 1.719 3.833 3.84v21.12c0 2.121-1.716 3.84-3.833 3.84h-38.333c-2.117 0-3.833-1.719-3.833-3.84v-21.12c0-2.121 1.716-3.84 3.833-3.84z"></path>
<path d="M21.128 45.859l-2.097 5.483h45.137l-2.255-5.483h-40.785zM21.128 42h40.785c1.55 0 2.946 0.94 3.54 2.382l2.255 5.483c0.81 1.969-0.118 4.226-2.073 5.042-0.465 0.194-0.963 0.294-1.466 0.294h-45.137c-2.116 0-3.831-1.728-3.831-3.859 0-0.474 0.087-0.945 0.256-1.387l2.097-5.483c0.57-1.489 1.991-2.472 3.575-2.472z"></path>
<path d="M19.026 56.8h45.148v-2h-45.148v2zM17.113 50.8h48.974c1.057 0 1.913 0.895 1.913 2v6c0 1.105-0.856 2-1.913 2h-48.974c-1.057 0-1.913-0.895-1.913-2v-6c0-1.105 0.856-2 1.913-2z"></path>
<path d="M28.178 34.6h26.444v-7.6h-26.444v7.6zM26.289 23.2h30.222c1.043 0 1.889 0.851 1.889 1.9v11.4c0 1.049-0.846 1.9-1.889 1.9h-30.222c-1.043 0-1.889-0.851-1.889-1.9v-11.4c0-1.049 0.846-1.9 1.889-1.9z"></path>
<path d="M31.2 29.2h3.2v3.2h-3.2v-3.2z"></path>
<path d="M36 29.2h3.2v3.2h-3.2v-3.2z"></path>
<path d="M40.8 29.2h3.2v3.2h-3.2v-3.2z"></path>
</symbol>
<symbol id="icon-no-file" viewBox="0 0 80 80">
<title>icon-no-file</title>
<path d="M40 80c-22.091 0-40-17.909-40-40s17.909-40 40-40c22.091 0 40 17.909 40 40s-17.909 40-40 40zM40 76.8c20.324 0 36.8-16.476 36.8-36.8s-16.476-36.8-36.8-36.8c-20.324 0-36.8 16.476-36.8 36.8s16.476 36.8 36.8 36.8z"></path>
<path d="M50.129 23.2h-3.788l-3.146-3.235h-20.835v30.070h3.336v3.165h-4.916c-0.873 0-1.58-0.709-1.58-1.583v-33.235c0-0.874 0.707-1.583 1.58-1.583h23.749l6.255 6.4h-0.655z"></path>
<path d="M51.141 28l-3.146-3.235h-20.835v30.070h2.44v3.165h-4.020c-0.873 0-1.58-0.709-1.58-1.583v-33.235c0-0.874 0.707-1.583 1.58-1.583h23.749l5.828 6.4h-4.016z"></path>
<path d="M31.16 60.435h25.28v-25.499l-4.445-4.571h-20.835v30.070zM29.58 27.2h23.749l6.271 6.449v28.368c0 0.874-0.707 1.583-1.58 1.583h-28.44c-0.873 0-1.58-0.709-1.58-1.583v-33.235c0-0.874 0.707-1.583 1.58-1.583z"></path>
<path d="M35.988 40.776h14.379c0.877 0 1.588-0.711 1.588-1.588s-0.711-1.588-1.588-1.588h-14.379c-0.877 0-1.588 0.711-1.588 1.588s0.711 1.588 1.588 1.588z"></path>
<path d="M35.988 47.176h14.379c0.877 0 1.588-0.711 1.588-1.588s-0.711-1.588-1.588-1.588h-14.379c-0.877 0-1.588 0.711-1.588 1.588s0.711 1.588 1.588 1.588z"></path>
<path d="M35.988 53.576h14.379c0.877 0 1.588-0.711 1.588-1.588s-0.711-1.588-1.588-1.588h-14.379c-0.877 0-1.588 0.711-1.588 1.588s0.711 1.588 1.588 1.588z"></path>
<path d="M54.136 26.917l2.157 2.292-25.278 33.29-2.096-2.378z"></path>
</symbol>
<symbol id="icon-no-results" viewBox="0 0 88 80">
<title>icon-no-results</title>
<path d="M4.706 56.466v-51.761h78.818v51.761h-78.818zM3.529 0c-1.949 0-3.529 1.58-3.529 3.529v52.937c0 1.949 1.58 3.529 3.529 3.529h81.17c1.949 0 3.529-1.58 3.529-3.529v-52.937c0-1.949-1.58-3.529-3.529-3.529h-81.17zM57.252 75.104c0 0-1.589-7.014-1.973-9.416-0.091-0.572-0.582-0.987-1.16-0.987h-20.596c-0.578 0-1.069 0.415-1.161 0.987-0.382 2.394-1.97 9.416-1.97 9.416l-13.794 2.123c-0.915 0.141-1.316 1.236-0.707 1.935l0.372 0.428c0.224 0.256 0.547 0.404 0.887 0.404h54.324c0.34 0 0.664-0.147 0.886-0.404l0.359-0.411c0.612-0.702 0.204-1.803-0.719-1.938l-14.747-2.139zM67.168 50.854l-13.496-13.039c2.478-2.99 3.967-6.795 3.967-10.935 0-9.67-8.112-17.5-18.106-17.5-10.006 0-18.106 7.842-18.106 17.5s8.112 17.5 18.106 17.5c4.312 0 8.267-1.46 11.376-3.886l13.484 13.039 2.775-2.679zM28.074 37.964c-3.061-2.955-4.741-6.887-4.741-11.073s1.691-8.118 4.741-11.073c3.049-2.955 7.135-4.599 11.459-4.599s8.398 1.633 11.459 4.588c3.061 2.955 4.741 6.887 4.741 11.073s-1.691 8.118-4.741 11.073c-3.061 2.955-7.135 4.588-11.459 4.588-4.324 0.011-8.398-1.621-11.459-4.576z"></path>
</symbol>
<symbol id="icon-search-filled" viewBox="0 0 32 32">
<title>icon-search-filled</title>
<path d="M17.692 16.73c0.545-0.742 0.868-1.659 0.868-2.65 0-2.474-2.006-4.48-4.48-4.48s-4.48 2.006-4.48 4.48c0 2.474 2.006 4.48 4.48 4.48 1.012 0 1.945-0.335 2.695-0.901 0.012 0.015 0.025 0.030 0.038 0.044l5.009 5.236c0.254 0.265 0.693 0.291 0.982 0.058s0.316-0.638 0.063-0.903l-5.009-5.236c-0.049-0.051-0.105-0.094-0.166-0.127zM16 32c-8.837 0-16-7.163-16-16s7.163-16 16-16c8.837 0 16 7.163 16 16s-7.163 16-16 16zM14.080 17.28c-1.767 0-3.2-1.433-3.2-3.2s1.433-3.2 3.2-3.2c1.767 0 3.2 1.433 3.2 3.2s-1.433 3.2-3.2 3.2z"></path>
</symbol>
<symbol id="icon-crown" viewBox="0 0 32 32">
<title>icon-crown</title>
<path fill="none" stroke="#000" stroke-width="1.28" stroke-miterlimit="4" stroke-linecap="round" stroke-linejoin="miter" style="stroke: var(--color1, #000)" d="M31.36 16c0 8.483-6.877 15.36-15.36 15.36s-15.36-6.877-15.36-15.36c0-8.483 6.877-15.36 15.36-15.36s15.36 6.877 15.36 15.36z"></path>
<path d="M23.592 23.965l-0.64 0.64v-0.64h0.64zM22.952 19.734c0-0.137 0.044-0.271 0.126-0.381 2.616-3.526 2.888-5.946 1.044-7.485-1.899-1.584-4.199-1.279-7.079 1.051-0.275 0.222-0.678 0.18-0.9-0.095s-0.18-0.678 0.095-0.9c3.309-2.678 6.27-3.071 8.705-1.039 2.453 2.047 2.144 5.138-0.71 9.059v4.66c0 0.353-0.287 0.64-0.64 0.64h-6.91c-0.353 0-0.64-0.287-0.64-0.64s0.287-0.64 0.64-0.64h6.27v-4.23z"></path>
<path d="M16.313 23.965c0.353 0 0.64 0.287 0.64 0.64s-0.287 0.64-0.64 0.64h-6.91c-0.353 0-0.64-0.287-0.64-0.64v-4.66c-2.853-3.921-3.162-7.012-0.71-9.059 2.434-2.031 5.395-1.639 8.705 1.039 0.275 0.222 0.317 0.625 0.095 0.9s-0.625 0.317-0.9 0.095c-2.88-2.331-5.181-2.636-7.079-1.051-1.845 1.539-1.573 3.959 1.044 7.485 0.082 0.11 0.126 0.244 0.126 0.381v4.23h6.27z"></path>
<path d="M9.28 20.16c-0.668 0-0.889-0.894-0.299-1.206l6.931-3.658c0.184-0.097 0.403-0.099 0.588-0.005l7.207 3.658c0.6 0.305 0.384 1.211-0.29 1.211h-14.138zM20.743 18.88l-4.526-2.297-4.353 2.297h8.879z"></path>
<path d="M16.96 15.68v-8.983c0-0.353-0.287-0.64-0.64-0.64s-0.64 0.287-0.64 0.64v8.983c0 0.353 0.287 0.64 0.64 0.64s0.64-0.287 0.64-0.64z"></path>
<path d="M13.76 9.28h5.12c0.353 0 0.64-0.287 0.64-0.64s-0.287-0.64-0.64-0.64h-5.12c-0.353 0-0.64 0.287-0.64 0.64s0.287 0.64 0.64 0.64z"></path>
</symbol>
<symbol id="icon-computer" viewBox="0 0 32 32">
<title>icon-computer</title>
<path d="M16 32c-8.837 0-16-7.163-16-16s7.163-16 16-16c8.837 0 16 7.163 16 16s-7.163 16-16 16zM16 30.72c8.13 0 14.72-6.59 14.72-14.72s-6.59-14.72-14.72-14.72c-8.13 0-14.72 6.59-14.72 14.72s6.59 14.72 14.72 14.72z"></path>
<path d="M9.6 10.24v7.040h12.8v-7.040h-12.8zM9.6 8.96h12.8c0.707 0 1.28 0.573 1.28 1.28v7.040c0 0.707-0.573 1.28-1.28 1.28h-12.8c-0.707 0-1.28-0.573-1.28-1.28v-7.040c0-0.707 0.573-1.28 1.28-1.28z"></path>
<path d="M9.199 18.56l-0.701 1.819h15.080l-0.753-1.819h-13.626zM9.199 17.28h13.626c0.518 0 0.984 0.312 1.183 0.79l0.753 1.819c0.271 0.653-0.040 1.402-0.693 1.672-0.155 0.064-0.322 0.097-0.49 0.097h-15.080c-0.707 0-1.28-0.573-1.28-1.28 0-0.157 0.029-0.313 0.086-0.46l0.701-1.819c0.19-0.494 0.665-0.82 1.194-0.82z"></path>
<path d="M8.48 22.336h15.104v-0.64h-15.104v0.64zM7.84 20.416h16.384c0.353 0 0.64 0.287 0.64 0.64v1.92c0 0.353-0.287 0.64-0.64 0.64h-16.384c-0.353 0-0.64-0.287-0.64-0.64v-1.92c0-0.353 0.287-0.64 0.64-0.64z"></path>
<path d="M11.52 14.912h8.96v-2.56h-8.96v2.56zM10.88 11.072h10.24c0.353 0 0.64 0.287 0.64 0.64v3.84c0 0.353-0.287 0.64-0.64 0.64h-10.24c-0.353 0-0.64-0.287-0.64-0.64v-3.84c0-0.353 0.287-0.64 0.64-0.64z"></path>
</symbol>
<symbol id="icon-support-filled" viewBox="0 0 32 32">
<title>icon-support-filled</title>
<path d="M23.237 13.838c-0.661-3.45-3.65-6.054-7.237-6.054s-6.576 2.604-7.237 6.054h-0.98v6.054h3.459v-6.054h-1.456c0.748-2.823 3.284-4.901 6.298-4.901s5.55 2.078 6.298 4.901h-1.626v6.054h3.459v-6.054h-0.98zM16 32c-8.837 0-16-7.163-16-16s7.163-16 16-16c8.837 0 16 7.163 16 16s-7.163 16-16 16zM13.585 24.246c0.18 0.483 0.736 0.835 1.393 0.835 0.803 0 1.455-0.525 1.455-1.173s-0.651-1.173-1.455-1.173c-0.466 0-0.88 0.176-1.146 0.451-1.51-0.577-2.749-1.768-3.457-3.294h-0.861c0.711 2.006 2.2 3.6 4.071 4.354zM8.649 14.703h1.73v4.324h-1.73v-4.324zM21.622 14.703h1.73v4.324h-1.73v-4.324z"></path>
</symbol>
<symbol id="icon-bell" viewBox="0 0 32 32">
<title>icon-bell</title>
<path d="M16 32c-8.837 0-16-7.163-16-16s7.163-16 16-16c8.837 0 16 7.163 16 16s-7.163 16-16 16zM14.080 21.761c-0.009 1.24 0.659 1.995 1.835 1.995 1.172 0 1.846-0.748 1.857-1.985l-1.28-0.012c-0.005 0.564-0.142 0.716-0.577 0.716-0.431 0-0.559-0.145-0.555-0.706l-1.28-0.009zM10.88 18.347l-1.92 3.413h14.080l-1.92-3.413c0.273-6.258-1.401-9.387-5.022-9.387s-5.36 3.129-5.218 9.387zM20.004 18.974l0.847 1.506h-9.703l0.847-1.506c0.113-0.2 0.169-0.427 0.164-0.657-0.128-5.636 1.23-8.078 3.938-8.078 2.692 0 3.988 2.423 3.743 8.051-0.010 0.238 0.046 0.475 0.163 0.683z"></path>
</symbol>
<symbol id="icon-smartphone" viewBox="0 0 32 32">
<title>icon-smartphone</title>
<path fill="#000" style="fill: var(--color1, #000)" d="M16 32c-8.837 0-16-7.163-16-16s7.163-16 16-16c8.837 0 16 7.163 16 16s-7.163 16-16 16zM16 30.72c8.13 0 14.72-6.59 14.72-14.72s-6.59-14.72-14.72-14.72c-8.13 0-14.72 6.59-14.72 14.72s6.59 14.72 14.72 14.72z"></path>
<path fill="#1d1d1d" style="fill: var(--color2, #1d1d1d)" d="M15.872 23.424c-0.636 0-1.152-0.516-1.152-1.152s0.516-1.152 1.152-1.152c0.636 0 1.152 0.516 1.152 1.152s-0.516 1.152-1.152 1.152zM15.872 22.144c-0.071 0-0.128 0.057-0.128 0.128s0.057 0.128 0.128 0.128c0.071 0 0.128-0.057 0.128-0.128s-0.057-0.128-0.128-0.128z"></path>
<path fill="#1d1d1d" style="fill: var(--color2, #1d1d1d)" d="M11.053 24.192h9.895v-15.872h-9.895v15.872zM10.413 7.040h11.175c0.353 0 0.64 0.287 0.64 0.64v17.152c0 0.353-0.287 0.64-0.64 0.64h-11.175c-0.353 0-0.64-0.287-0.64-0.64v-17.152c0-0.353 0.287-0.64 0.64-0.64z"></path>
<path fill="#1d1d1d" style="fill: var(--color2, #1d1d1d)" d="M13.44 19.2h5.12v-8.32h-5.12v8.32zM12.8 9.6h6.4c0.353 0 0.64 0.287 0.64 0.64v9.6c0 0.353-0.287 0.64-0.64 0.64h-6.4c-0.353 0-0.64-0.287-0.64-0.64v-9.6c0-0.353 0.287-0.64 0.64-0.64z"></path>
</symbol>
<symbol id="icon-dance" viewBox="0 0 32 32">
<title>icon-dance</title>
<path d="M16 32c-8.837 0-16-7.163-16-16s7.163-16 16-16c8.837 0 16 7.163 16 16s-7.163 16-16 16zM16 30.72c8.13 0 14.72-6.59 14.72-14.72s-6.59-14.72-14.72-14.72c-8.13 0-14.72 6.59-14.72 14.72s6.59 14.72 14.72 14.72z"></path>
<path d="M19.2 25.309v-8.029c0-0.707-0.573-1.28-1.28-1.28s-1.28 0.573-1.28 1.28v8.029c0 0.707 0.573 1.28 1.28 1.28s1.28-0.573 1.28-1.28z"></path>
<path d="M18.050 15.989c-0.765-0.057-1.286-0.262-1.61-0.584-0.46-0.457-0.864-1.139-1.196-2.058-0.165-0.455-0.572-0.779-1.052-0.836-1.365-0.162-2.412-0.365-3.125-0.598-0.645-0.211-1.286-0.579-1.925-1.114-0.542-0.454-1.349-0.382-1.803 0.16s-0.382 1.349 0.16 1.803c0.88 0.737 1.804 1.268 2.772 1.584 0.744 0.243 1.695 0.445 2.862 0.609 0.407 0.914 0.905 1.671 1.503 2.265 0.858 0.853 2.059 1.285 3.543 1.338 0.153 0.005 0.306-0.017 0.451-0.065l2.896-0.967c0.522-0.174 0.875-0.663 0.875-1.214 0-1.217-0.117-2.189-0.372-2.942-0.275-0.809-0.9-1.697-1.874-2.73-0.485-0.514-1.295-0.538-1.809-0.053s-0.538 1.295-0.053 1.809c0.744 0.788 1.181 1.409 1.312 1.796 0.098 0.29 0.169 0.694 0.206 1.207l-1.76 0.588z"></path>
<path d="M15.232 15.253c1.875-0.819 3.1-1.48 3.753-2.059 0.511-0.453 1.284-1.111 2.315-1.972 0.543-0.453 0.615-1.26 0.162-1.803s-1.26-0.615-1.803-0.162c-1.048 0.875-1.837 1.548-2.371 2.020-0.391 0.346-1.444 0.914-3.081 1.629-0.648 0.283-0.944 1.037-0.661 1.685s1.037 0.944 1.685 0.661z"></path>
<path d="M13.12 12.8c-1.591 0-2.88-1.289-2.88-2.88s1.289-2.88 2.88-2.88c1.591 0 2.88 1.289 2.88 2.88s-1.289 2.88-2.88 2.88zM13.12 11.52c0.884 0 1.6-0.716 1.6-1.6s-0.716-1.6-1.6-1.6c-0.884 0-1.6 0.716-1.6 1.6s0.716 1.6 1.6 1.6z"></path>
</symbol>
<symbol id="icon-donate" viewBox="0 0 32 32">
<title>icon-donate</title>
<path d="M16 32c-8.837 0-16-7.163-16-16s7.163-16 16-16c8.837 0 16 7.163 16 16s-7.163 16-16 16zM16 30.72c8.13 0 14.72-6.59 14.72-14.72s-6.59-14.72-14.72-14.72c-8.13 0-14.72 6.59-14.72 14.72s6.59 14.72 14.72 14.72z"></path>
<path d="M23.81 18.269c0.341-0.092 0.693 0.111 0.784 0.452l0.693 2.584c0.086 0.32-0.086 0.652-0.397 0.767l-8.295 3.050c-0.14 0.051-0.292 0.052-0.433 0.003l-8.695-3.050c-0.256-0.090-0.428-0.332-0.428-0.604v-4.525c0-0.3 0.208-0.56 0.501-0.625 2.882-0.64 4.968-0.961 6.285-0.961 1.344 0 2.873 0.331 4.592 0.988 0.217 0.083 0.372 0.277 0.405 0.507l0.278 1.941c0.051 0.353-0.197 0.679-0.55 0.725l-0.764 0.1 0.429 0.152 5.595-1.505zM18.384 18.252l-0.55 0.725-0.092-0.641 0.642-0.084zM8.32 21.017l8.050 2.824 7.53-2.769-0.376-1.401-5.169 1.39c-0.125 0.034-0.258 0.029-0.38-0.015l-3.132-1.11c-0.634-0.225-0.537-1.15 0.13-1.238l2.768-0.363-0.132-0.923c-1.436-0.517-2.698-0.773-3.784-0.773-1.127 0-2.969 0.273-5.506 0.821v3.557z"></path>
<path d="M19.398 8.811c-1.034-0.611-1.694-0.406-2.299 0.74-0.244 0.463-0.911 0.453-1.141-0.018-0.654-1.339-1.258-1.527-2.224-0.77-0.767 0.601-0.007 2.106 2.787 4.563 2.819-2.618 3.576-4.103 2.877-4.516zM20.050 7.709c1.978 1.17 0.718 3.51-3.087 6.949-0.238 0.215-0.599 0.221-0.844 0.012-3.728-3.175-4.981-5.498-3.174-6.915 1.369-1.073 2.653-0.926 3.618 0.321 0.913-1.025 2.131-1.17 3.487-0.368z"></path>
</symbol>
<symbol id="icon-travel" viewBox="0 0 32 32">
<title>icon-travel</title>
<path d="M24.512 19.331l-0.832 0.61v-0.873l0.832 0.262zM17.024 13.532c-0.154-0.121-0.244-0.307-0.244-0.503v-4.298l0.004-0.068c0.081-0.758-0.107-0.982-0.783-0.982-0.353 0-0.64-0.287-0.64-0.64s0.287-0.64 0.64-0.64c1.447 0 2.205 0.889 2.060 2.363v3.955l6.656 5.244c0.154 0.121 0.244 0.307 0.244 0.503v1.476c0 0.432-0.42 0.74-0.832 0.61l-5.867-1.849v1.805l2.761 2.872c0.391 0.407 0.103 1.084-0.461 1.084h-2.834c-0.335 0.723-0.887 1.136-1.63 1.136-0.353 0-0.64-0.287-0.64-0.64s0.287-0.64 0.64-0.64c0.248 0 0.423-0.168 0.574-0.678 0.080-0.272 0.33-0.459 0.614-0.459h1.774l-1.898-1.975c-0.115-0.119-0.179-0.278-0.179-0.444v-2.935c0-0.432 0.42-0.74 0.832-0.61l5.867 1.849v-0.293l-6.656-5.244z"></path>
<path d="M8.128 19.331l0.832 0.61v-0.873l-0.832 0.262zM15.616 13.532c0.154-0.121 0.244-0.307 0.244-0.503v-4.298l-0.004-0.068c-0.081-0.758 0.107-0.982 0.783-0.982 0.353 0 0.64-0.287 0.64-0.64s-0.287-0.64-0.64-0.64c-1.447 0-2.205 0.889-2.060 2.363v3.955l-6.656 5.244c-0.154 0.121-0.244 0.307-0.244 0.503v1.476c0 0.432 0.42 0.74 0.832 0.61l5.867-1.849v1.805l-2.761 2.872c-0.391 0.407-0.103 1.084 0.461 1.084h2.834c0.335 0.723 0.887 1.136 1.63 1.136 0.353 0 0.64-0.287 0.64-0.64s-0.287-0.64-0.64-0.64c-0.248 0-0.423-0.168-0.574-0.678-0.080-0.272-0.33-0.459-0.614-0.459h-1.774l1.898-1.975c0.115-0.119 0.179-0.278 0.179-0.444v-2.935c0-0.432-0.42-0.74-0.832-0.61l-5.867 1.849v-0.293l6.656-5.244z"></path>
<path d="M16 32c-8.837 0-16-7.163-16-16s7.163-16 16-16c8.837 0 16 7.163 16 16s-7.163 16-16 16zM16 30.72c8.13 0 14.72-6.59 14.72-14.72s-6.59-14.72-14.72-14.72c-8.13 0-14.72 6.59-14.72 14.72s6.59 14.72 14.72 14.72z"></path>
</symbol>
<symbol id="icon-email" viewBox="0 0 32 32">
<title>icon-email</title>
<path d="M6.066 22.328c0 0 0 0.001 0 0.001v0.399c0 0.353 0.286 0.639 0.639 0.639h18.014c0.353 0 0.639-0.286 0.639-0.639v-12.652c0-0.012 0-0.024-0-0.036-0.003-0.14-0.052-0.27-0.132-0.373-0.106-0.14-0.27-0.239-0.475-0.249-0.011-0.001-0.021-0.001-0.032-0.001h-18.014c-0.010 0-0.019 0-0.028 0.001-0.254 0.010-0.446 0.157-0.542 0.351-0.021 0.042-0.038 0.086-0.049 0.132-0.017 0.065-0.023 0.133-0.019 0.201v12.226zM7.343 20.817v-9.358l5.080 4.421-5.080 4.937zM7.867 22.090l5.523-5.368 1.901 1.654c0.24 0.209 0.598 0.209 0.839 0l1.9-1.654 5.524 5.368h-15.687zM24.079 20.818l-5.081-4.938 5.081-4.422v9.36zM18.025 15.033c-0.205-0.063-0.436-0.021-0.608 0.129l-1.707 1.486-1.708-1.486c-0.172-0.149-0.402-0.191-0.607-0.129l-4.984-4.337h14.598l-4.984 4.337zM32 16c0 8.836-7.164 16-16 16s-16-7.164-16-16c0-8.836 7.164-16 16-16s16 7.164 16 16z"></path>
</symbol>
<symbol id="icon-menu" viewBox="0 0 32 32">
<title>icon-menu</title>
<path d="M16 32c-8.837 0-16-7.163-16-16s7.163-16 16-16c8.837 0 16 7.163 16 16s-7.163 16-16 16zM10.24 9.6c-0.353 0-0.64 0.287-0.64 0.64v4.48c0 0.353 0.287 0.64 0.64 0.64h4.48c0.353 0 0.64-0.287 0.64-0.64v-4.48c0-0.353-0.287-0.64-0.64-0.64h-4.48zM10.88 14.080v-3.2h3.2v3.2h-3.2zM10.24 16.64c-0.353 0-0.64 0.287-0.64 0.64v4.48c0 0.353 0.287 0.64 0.64 0.64h4.48c0.353 0 0.64-0.287 0.64-0.64v-4.48c0-0.353-0.287-0.64-0.64-0.64h-4.48zM10.88 17.92h3.2v3.2h-3.2v-3.2zM17.28 9.6c-0.353 0-0.64 0.287-0.64 0.64v4.48c0 0.353 0.287 0.64 0.64 0.64h4.48c0.353 0 0.64-0.287 0.64-0.64v-4.48c0-0.353-0.287-0.64-0.64-0.64h-4.48zM17.92 14.080v-3.2h3.2v3.2h-3.2zM17.28 16.64c-0.353 0-0.64 0.287-0.64 0.64v4.48c0 0.353 0.287 0.64 0.64 0.64h4.48c0.353 0 0.64-0.287 0.64-0.64v-4.48c0-0.353-0.287-0.64-0.64-0.64h-4.48zM17.92 21.12v-3.2h3.2v3.2h-3.2z"></path>
</symbol>
<symbol id="icon-support" viewBox="0 0 32 32">
<title>icon-support</title>
<path d="M16 32c-8.837 0-16-7.163-16-16s7.163-16 16-16c8.837 0 16 7.163 16 16s-7.163 16-16 16zM16 30.72c8.13 0 14.72-6.59 14.72-14.72s-6.59-14.72-14.72-14.72c-8.13 0-14.72 6.59-14.72 14.72s6.59 14.72 14.72 14.72z"></path>
<path d="M8 13.993v4.655h1.92v-4.655h-1.92zM7.040 13.12h3.84v6.4h-3.84v-6.4z"></path>
<path d="M22.080 13.993v4.655h1.92v-4.655h-1.92zM21.12 13.12h3.84v6.4h-3.84v-6.4z"></path>
<path d="M8.354 13.912c0.301-3.96 3.609-7.079 7.646-7.079s7.345 3.119 7.646 7.079h-0.831c-0.434-3.328-3.28-5.899-6.726-5.899s-6.293 2.57-6.726 5.899h-1.008z"></path>
<path d="M9.349 19.811h0.947c0.889 1.782 2.539 3.118 4.524 3.582v1.169c-2.519-0.569-4.567-2.378-5.471-4.752z"></path>
<path d="M16.96 23.92c0 0.663-0.716 1.2-1.6 1.2s-1.6-0.537-1.6-1.2c0-0.663 0.716-1.2 1.6-1.2s1.6 0.537 1.6 1.2z"></path>
</symbol>
<symbol id="icon-help" viewBox="0 0 32 32">
<title>icon-help</title>
<path d="M16 32c-8.837 0-16-7.163-16-16s7.163-16 16-16c8.837 0 16 7.163 16 16s-7.163 16-16 16zM16 30.72c8.13 0 14.72-6.59 14.72-14.72s-6.59-14.72-14.72-14.72c-8.13 0-14.72 6.59-14.72 14.72s6.59 14.72 14.72 14.72z"></path>
<path d="M14.035 11.234c0.025 0.043 0.023 0.042 0.077 0.042 0.008 0 0.024-0.005 0.056-0.023 0.133-0.077 0.287-0.162 0.462-0.254 0.206-0.109 0.444-0.204 0.714-0.288 0.302-0.094 0.656-0.138 1.065-0.138 0.604 0 1.114 0.167 1.502 0.515 0.401 0.36 0.603 0.85 0.603 1.421 0 0.437-0.096 0.833-0.293 1.175-0.171 0.298-0.387 0.566-0.646 0.805-0.234 0.215-0.485 0.416-0.754 0.601-0.226 0.156-0.435 0.317-0.629 0.483-0.164 0.141-0.298 0.293-0.402 0.457-0.071 0.112-0.108 0.246-0.108 0.419 0 0.022 0.001 0.044 0.003 0.066s0.005 0.044 0.011 0.085l0.142 1.040h1.015l0.174-0.867c0.065-0.337 0.234-0.637 0.492-0.89 0.189-0.185 0.408-0.371 0.657-0.559 0.226-0.171 0.466-0.353 0.719-0.546 0.211-0.162 0.408-0.357 0.591-0.587 0.173-0.218 0.317-0.477 0.433-0.781 0.109-0.284 0.166-0.644 0.166-1.078 0-0.443-0.077-0.836-0.229-1.185-0.151-0.346-0.363-0.639-0.642-0.883-0.283-0.248-0.632-0.443-1.051-0.581-0.43-0.143-0.922-0.215-1.477-0.215-0.401 0-0.77 0.034-1.107 0.101-0.34 0.068-0.656 0.162-0.947 0.281-0.298 0.122-0.574 0.263-0.831 0.422-0.094 0.058-0.185 0.118-0.274 0.18l0.508 0.782zM12.256 9.812c0.268-0.224 0.558-0.433 0.87-0.627 0.318-0.197 0.658-0.37 1.020-0.519 0.369-0.151 0.763-0.268 1.181-0.352 0.422-0.084 0.875-0.126 1.358-0.126 0.686 0 1.313 0.092 1.879 0.28 0.577 0.191 1.077 0.469 1.493 0.834 0.421 0.369 0.746 0.816 0.972 1.334 0.224 0.515 0.335 1.082 0.335 1.696 0 0.582-0.081 1.094-0.25 1.535-0.161 0.422-0.37 0.796-0.626 1.12-0.247 0.311-0.518 0.581-0.815 0.808-0.255 0.196-0.498 0.38-0.727 0.553-0.207 0.156-0.384 0.306-0.531 0.451-0.078 0.077-0.117 0.146-0.132 0.223l-0.38 1.9h-3.182l-0.076-0.553-0.215-1.575c-0.009-0.057-0.017-0.114-0.021-0.171s-0.007-0.115-0.007-0.172c0-0.409 0.102-0.782 0.308-1.106 0.173-0.272 0.389-0.519 0.647-0.741 0.229-0.197 0.474-0.385 0.737-0.566 0.22-0.151 0.424-0.314 0.612-0.488 0.164-0.151 0.298-0.318 0.404-0.502 0.080-0.139 0.123-0.315 0.123-0.537 0-0.22-0.058-0.361-0.179-0.469-0.134-0.12-0.339-0.187-0.646-0.187-0.29 0-0.52 0.029-0.687 0.080-0.198 0.061-0.363 0.128-0.494 0.197-0.162 0.086-0.301 0.163-0.419 0.231-0.219 0.127-0.454 0.195-0.697 0.195-0.513 0-0.937-0.245-1.17-0.657l-1.121-1.723 0.435-0.364zM15.129 21.855c0 0.152 0.027 0.289 0.082 0.416 0.056 0.132 0.131 0.242 0.226 0.334s0.208 0.166 0.343 0.221c0.133 0.054 0.282 0.082 0.452 0.082 0.163 0 0.309-0.027 0.442-0.082 0.137-0.056 0.253-0.13 0.352-0.226 0.096-0.092 0.17-0.2 0.226-0.33 0.055-0.127 0.082-0.264 0.082-0.416s-0.027-0.285-0.080-0.408c-0.055-0.127-0.13-0.235-0.227-0.328-0.101-0.097-0.22-0.175-0.36-0.234-0.131-0.055-0.274-0.083-0.434-0.083-0.167 0-0.314 0.028-0.444 0.083-0.138 0.058-0.254 0.134-0.351 0.229-0.096 0.094-0.171 0.203-0.227 0.333-0.053 0.123-0.080 0.257-0.080 0.408zM13.848 21.855c0-0.324 0.062-0.632 0.187-0.919 0.122-0.28 0.291-0.526 0.505-0.736 0.213-0.209 0.464-0.374 0.748-0.494 0.292-0.123 0.607-0.184 0.942-0.184 0.328 0 0.641 0.061 0.932 0.184 0.282 0.119 0.533 0.282 0.748 0.489 0.22 0.211 0.392 0.459 0.515 0.741 0.125 0.287 0.187 0.595 0.187 0.919s-0.062 0.632-0.185 0.92c-0.123 0.286-0.296 0.538-0.517 0.749-0.217 0.208-0.471 0.371-0.756 0.487-0.289 0.117-0.599 0.176-0.924 0.176-0.331 0-0.644-0.058-0.934-0.176-0.287-0.117-0.541-0.281-0.756-0.492s-0.385-0.461-0.507-0.745c-0.124-0.289-0.185-0.597-0.185-0.92z"></path>
</symbol>
<symbol id="icon-hidden" viewBox="0 0 32 32">
<title>icon-hidden</title>
<path d="M16 32c-8.837 0-16-7.163-16-16s7.163-16 16-16c8.837 0 16 7.163 16 16s-7.163 16-16 16zM16 30.72c8.13 0 14.72-6.59 14.72-14.72s-6.59-14.72-14.72-14.72c-8.13 0-14.72 6.59-14.72 14.72s6.59 14.72 14.72 14.72z"></path>
<path d="M10.373 23.173l12.816-12.816c0.25-0.25 0.25-0.655 0-0.905s-0.655-0.25-0.905 0l-12.816 12.816c-0.25 0.25-0.25 0.655 0 0.905s0.655 0.25 0.905 0z"></path>
<path d="M16.137 20.48c2.372 0 4.769-1.405 7.189-4.326-2.574-3.129-5.043-4.634-7.385-4.634-2.332 0-4.756 1.494-7.257 4.601 2.579 2.941 5.066 4.359 7.452 4.359zM15.941 10.24c2.997 0 6.003 1.972 9.019 5.915-2.85 3.737-5.791 5.605-8.823 5.605s-6.065-1.868-9.097-5.605c2.938-3.943 5.905-5.915 8.901-5.915z"></path>
<path d="M16 19.84c-2.121 0-3.84-1.719-3.84-3.84s1.719-3.84 3.84-3.84c2.121 0 3.84 1.719 3.84 3.84s-1.719 3.84-3.84 3.84zM16 18.56c1.414 0 2.56-1.146 2.56-2.56s-1.146-2.56-2.56-2.56c-1.414 0-2.56 1.146-2.56 2.56s1.146 2.56 2.56 2.56z"></path>
</symbol>
<symbol id="icon-seen" viewBox="0 0 32 32">
<title>icon-seen</title>
<path d="M16 32c-8.837 0-16-7.163-16-16s7.163-16 16-16c8.837 0 16 7.163 16 16s-7.163 16-16 16zM16 30.72c8.13 0 14.72-6.59 14.72-14.72s-6.59-14.72-14.72-14.72c-8.13 0-14.72 6.59-14.72 14.72s6.59 14.72 14.72 14.72z"></path>
<path fill="none" stroke="#000" stroke-width="1.28" stroke-miterlimit="4" stroke-linecap="butt" stroke-linejoin="miter" style="stroke: var(--color1, #000)" d="M7.856 16.138c2.812 3.341 5.574 4.982 8.281 4.982 2.7 0 5.371-1.634 8.012-4.965-2.801-3.539-5.541-5.275-8.208-5.275-2.661 0-5.36 1.73-8.085 5.258z"></path>
<path d="M16 19.84c-2.121 0-3.84-1.719-3.84-3.84s1.719-3.84 3.84-3.84c2.121 0 3.84 1.719 3.84 3.84s-1.719 3.84-3.84 3.84zM16 18.56c1.414 0 2.56-1.146 2.56-2.56s-1.146-2.56-2.56-2.56c-1.414 0-2.56 1.146-2.56 2.56s1.146 2.56 2.56 2.56z"></path>
</symbol>
<symbol id="icon-favorite" viewBox="0 0 32 32">
<title>icon-favorite</title>
<path d="M16 32c-8.837 0-16-7.163-16-16s7.163-16 16-16c8.837 0 16 7.163 16 16s-7.163 16-16 16zM16 30.72c8.13 0 14.72-6.59 14.72-14.72s-6.59-14.72-14.72-14.72c-8.13 0-14.72 6.59-14.72 14.72s6.59 14.72 14.72 14.72z"></path>
<path d="M16 18.157l2.536 1.333-0.484-2.823 2.051-2-2.835-0.412-1.268-2.569-1.268 2.569-2.835 0.412 2.051 2-0.484 2.823 2.536-1.333zM12.63 16.782l0.184 0.566-0.241-0.235 0.057-0.332zM11.764 21.83l0.809-4.716-3.427-3.34 4.736-0.688 2.118-4.291 2.118 4.291 4.736 0.688-3.427 3.34 0.809 4.716-4.236-2.227-4.236 2.227z"></path>
</symbol>
<symbol id="icon-share" viewBox="0 0 32 32">
<title>icon-share</title>
<path d="M16 32c-8.837 0-16-7.163-16-16s7.163-16 16-16c8.837 0 16 7.163 16 16s-7.163 16-16 16zM16 30.72c8.13 0 14.72-6.59 14.72-14.72s-6.59-14.72-14.72-14.72c-8.13 0-14.72 6.59-14.72 14.72s6.59 14.72 14.72 14.72z"></path>
<path d="M10.88 19.84c-1.767 0-3.2-1.433-3.2-3.2s1.433-3.2 3.2-3.2c1.767 0 3.2 1.433 3.2 3.2s-1.433 3.2-3.2 3.2zM10.88 18.56c1.060 0 1.92-0.86 1.92-1.92s-0.86-1.92-1.92-1.92c-1.060 0-1.92 0.86-1.92 1.92s0.86 1.92 1.92 1.92z"></path>
<path d="M19.84 14.72c-1.767 0-3.2-1.433-3.2-3.2s1.433-3.2 3.2-3.2c1.767 0 3.2 1.433 3.2 3.2s-1.433 3.2-3.2 3.2zM19.84 13.44c1.060 0 1.92-0.86 1.92-1.92s-0.86-1.92-1.92-1.92c-1.060 0-1.92 0.86-1.92 1.92s0.86 1.92 1.92 1.92z"></path>
<path d="M19.84 25.6c-1.767 0-3.2-1.433-3.2-3.2s1.433-3.2 3.2-3.2c1.767 0 3.2 1.433 3.2 3.2s-1.433 3.2-3.2 3.2zM19.84 24.32c1.060 0 1.92-0.86 1.92-1.92s-0.86-1.92-1.92-1.92c-1.060 0-1.92 0.86-1.92 1.92s0.86 1.92 1.92 1.92z"></path>
<path d="M12.891 15.916l5.114-2.997-0.647-1.104-5.114 2.997z"></path>
<path d="M12.566 17.998l4.219 4.164 0.899-0.911-4.219-4.164z"></path>
</symbol>
<symbol id="icon-fitness" viewBox="0 0 32 32">
<title>icon-fitness</title>
<path d="M16 32c-8.837 0-16-7.163-16-16s7.163-16 16-16c8.837 0 16 7.163 16 16s-7.163 16-16 16zM16 30.72c8.13 0 14.72-6.59 14.72-14.72s-6.59-14.72-14.72-14.72c-8.13 0-14.72 6.59-14.72 14.72s6.59 14.72 14.72 14.72z"></path>
<path d="M21.12 10.88v10.88h1.28v-10.88h-1.28zM21.12 9.6h1.28c0.707 0 1.28 0.573 1.28 1.28v10.88c0 0.707-0.573 1.28-1.28 1.28h-1.28c-0.707 0-1.28-0.573-1.28-1.28v-10.88c0-0.707 0.573-1.28 1.28-1.28z"></path>
<path d="M23.68 13.44v5.76h1.28v-5.76h-1.28zM23.68 12.16h1.28c0.707 0 1.28 0.573 1.28 1.28v5.76c0 0.707-0.573 1.28-1.28 1.28h-1.28c-0.707 0-1.28-0.573-1.28-1.28v-5.76c0-0.707 0.573-1.28 1.28-1.28z"></path>
<path d="M9.6 10.88v10.88h1.28v-10.88h-1.28zM9.6 9.6h1.28c0.707 0 1.28 0.573 1.28 1.28v10.88c0 0.707-0.573 1.28-1.28 1.28h-1.28c-0.707 0-1.28-0.573-1.28-1.28v-10.88c0-0.707 0.573-1.28 1.28-1.28z"></path>
<path d="M7.040 13.44v5.76h1.28v-5.76h-1.28zM7.040 12.16h1.28c0.707 0 1.28 0.573 1.28 1.28v5.76c0 0.707-0.573 1.28-1.28 1.28h-1.28c-0.707 0-1.28-0.573-1.28-1.28v-5.76c0-0.707 0.573-1.28 1.28-1.28z"></path>
<path d="M12.8 16.64h6.4v-0.64h-6.4v0.64zM11.52 14.72h8.96v3.2h-8.96v-3.2z"></path>
</symbol>
<symbol id="icon-reading" viewBox="0 0 32 32">
<title>icon-reading</title>
<path d="M16 32c-8.837 0-16-7.163-16-16s7.163-16 16-16c8.837 0 16 7.163 16 16s-7.163 16-16 16zM16 30.72c8.13 0 14.72-6.59 14.72-14.72s-6.59-14.72-14.72-14.72c-8.13 0-14.72 6.59-14.72 14.72s6.59 14.72 14.72 14.72z"></path>
<path d="M24.32 10.442c-1.564-0.173-2.758-0.233-3.564-0.183-0.819 0.051-1.983 0.261-3.476 0.632v9.282c1.63-0.337 2.841-0.531 3.654-0.581s1.937-0.002 3.386 0.143v-9.293zM16 9.9c2.031-0.545 3.59-0.851 4.677-0.918s2.728 0.041 4.923 0.325v11.86c-2.091-0.258-3.621-0.358-4.588-0.298s-2.638 0.357-5.012 0.891v-11.86z"></path>
<path d="M17.28 22.339v-1.091c0-0.353-0.287-0.64-0.64-0.64s-0.64 0.287-0.64 0.64v1.834c0 0.391 0.348 0.691 0.734 0.633l8.324-1.241c0.314-0.047 0.546-0.316 0.546-0.633v-1.379c0-0.353-0.287-0.64-0.64-0.64s-0.64 0.287-0.64 0.64v0.827l-7.044 1.050z"></path>
<path d="M8.32 10.442c1.564-0.173 2.758-0.233 3.564-0.183 0.819 0.051 1.983 0.261 3.476 0.632v9.282c-1.63-0.337-2.841-0.531-3.654-0.581s-1.937-0.002-3.386 0.143v-9.293zM16.64 9.9c-2.031-0.545-3.59-0.851-4.677-0.918s-2.728 0.041-4.923 0.325v11.86c2.091-0.258 3.621-0.358 4.588-0.298s2.638 0.357 5.012 0.891v-11.86z"></path>
<path d="M15.364 22.339v-1.091c0-0.353 0.287-0.64 0.64-0.64s0.64 0.287 0.64 0.64v1.834c0 0.391-0.348 0.691-0.734 0.633l-8.324-1.241c-0.314-0.047-0.546-0.316-0.546-0.633v-1.379c0-0.353 0.287-0.64 0.64-0.64s0.64 0.287 0.64 0.64v0.827l7.044 1.050z"></path>
</symbol>
<symbol id="icon-sports" viewBox="0 0 32 32">
<title>icon-sports</title>
<path d="M16 32c-8.837 0-16-7.163-16-16s7.163-16 16-16c8.837 0 16 7.163 16 16s-7.163 16-16 16zM16 30.72c8.13 0 14.72-6.59 14.72-14.72s-6.59-14.72-14.72-14.72c-8.13 0-14.72 6.59-14.72 14.72s6.59 14.72 14.72 14.72z"></path>
<path d="M15.68 23.68v-3.208c-2.495-0.112-4.21-1.378-5.146-3.797-0.155-0.043-0.295-0.144-0.383-0.294l-3.407-5.818c-0.25-0.427 0.058-0.963 0.552-0.963h2.943v-1.92h11.52v1.92h2.767c0.494 0 0.802 0.537 0.552 0.963l-3.407 5.818c-0.038 0.065-0.086 0.121-0.141 0.167-0.813 2.319-2.336 3.612-4.571 3.879v3.252h3.2c0.53 0 0.96 0.43 0.96 0.96s-0.43 0.96-0.96 0.96h-8.32c-0.53 0-0.96-0.43-0.96-0.96s0.43-0.96 0.96-0.96h3.84zM10.24 10.88h-1.827l1.827 3.12v-3.12zM21.76 10.88v2.818l1.65-2.818h-1.65zM11.52 8.96v6.646c0.743 2.474 2.176 3.592 4.524 3.594 2.343 0.002 3.743-1.106 4.436-3.573v-6.667h-8.96z"></path>
<path d="M15.702 15.114c0.186-0.098 0.409-0.098 0.596 0l0.733 0.385-0.14-0.816c-0.036-0.208 0.033-0.419 0.184-0.566l0.593-0.578-0.82-0.119c-0.208-0.030-0.389-0.161-0.482-0.35l-0.367-0.743-0.367 0.743c-0.093 0.189-0.273 0.32-0.482 0.35l-0.82 0.119 0.593 0.578c0.151 0.147 0.22 0.359 0.184 0.566l-0.14 0.816 0.733-0.385zM17.514 12.502l-0.482-0.35 0.333 0.048 0.149 0.302zM14.967 12.152l-0.482 0.35 0.149-0.302 0.333-0.048zM14.417 17.235c-0.47 0.247-1.018-0.152-0.929-0.675l0.302-1.763-1.281-1.248c-0.38-0.37-0.17-1.015 0.355-1.092l1.77-0.257 0.792-1.604c0.235-0.476 0.913-0.476 1.148 0l0.792 1.604 1.77 0.257c0.525 0.076 0.735 0.721 0.355 1.092l-1.281 1.248 0.302 1.763c0.090 0.523-0.459 0.921-0.929 0.675l-1.583-0.832-1.583 0.832z"></path>
</symbol>
<symbol id="icon-cloud" viewBox="0 0 32 32">
<title>icon-cloud</title>
<path d="M16 32c-8.837 0-16-7.163-16-16s7.163-16 16-16c8.837 0 16 7.163 16 16s-7.163 16-16 16zM16 30.72c8.13 0 14.72-6.59 14.72-14.72s-6.59-14.72-14.72-14.72c-8.13 0-14.72 6.59-14.72 14.72s6.59 14.72 14.72 14.72z"></path>
<path d="M24.832 15.652c1.184 0.892 1.301 2.616 0.523 5.090-0.084 0.267-0.331 0.448-0.611 0.448h-16.848c-0.261 0-0.496-0.159-0.594-0.401-1.096-2.727-1.214-4.791-0.25-6.178 0.855-1.23 2.094-1.725 3.613-1.478 0.666-2.339 2.623-3.533 5.701-3.533 3.172 0 5.032 1.99 5.52 5.749 1.049-0.457 2.055-0.368 2.945 0.303zM24.267 19.911c0.484-1.745 0.37-2.803-0.205-3.236-0.66-0.497-1.391-0.441-2.344 0.245-0.409 0.294-0.982 0.023-1.013-0.48-0.235-3.8-1.656-5.559-4.338-5.559-2.773 0-4.229 1.021-4.587 3.125-0.064 0.376-0.44 0.613-0.807 0.508-1.316-0.376-2.221-0.103-2.869 0.829-0.622 0.894-0.574 2.414 0.231 4.569h15.932z"></path>
</symbol>
<symbol id="icon-crop" viewBox="0 0 32 32">
<title>icon-crop</title>
<path d="M16 32c-8.837 0-16-7.163-16-16s7.163-16 16-16c8.837 0 16 7.163 16 16s-7.163 16-16 16zM16 30.72c8.13 0 14.72-6.59 14.72-14.72s-6.59-14.72-14.72-14.72c-8.13 0-14.72 6.59-14.72 14.72s6.59 14.72 14.72 14.72z"></path>
<path fill="none" stroke="#000" stroke-width="1.28" stroke-miterlimit="4" stroke-linecap="butt" stroke-linejoin="miter" style="stroke: var(--color1, #000)" d="M12.16 12.16h7.68c0.353 0 0.64 0.287 0.64 0.64v7.68c0 0.353-0.287 0.64-0.64 0.64h-7.68c-0.353 0-0.64-0.287-0.64-0.64v-7.68c0-0.353 0.287-0.64 0.64-0.64z"></path>
<path d="M12.8 11.52h-3.84c-0.353 0-0.64 0.287-0.64 0.64s0.287 0.64 0.64 0.64h3.84c0.353 0 0.64-0.287 0.64-0.64s-0.287-0.64-0.64-0.64z"></path>
<path d="M23.68 20.48h-3.84c-0.353 0-0.64 0.287-0.64 0.64s0.287 0.64 0.64 0.64h3.84c0.353 0 0.64-0.287 0.64-0.64s-0.287-0.64-0.64-0.64z"></path>
<path d="M12.212 21.333l10.368-10.368c0.25-0.25 0.25-0.655 0-0.905s-0.655-0.25-0.905 0l-10.368 10.368c-0.25 0.25-0.25 0.655 0 0.905s0.655 0.25 0.905 0z"></path>
</symbol>
<symbol id="icon-unlock" viewBox="0 0 32 32">
<title>icon-unlock</title>
<path d="M16 32c-8.837 0-16-7.163-16-16s7.163-16 16-16c8.837 0 16 7.163 16 16s-7.163 16-16 16zM16 30.72c8.13 0 14.72-6.59 14.72-14.72s-6.59-14.72-14.72-14.72c-8.13 0-14.72 6.59-14.72 14.72s6.59 14.72 14.72 14.72z"></path>
<path d="M10.88 21.76h10.24v-6.4h-10.24v6.4zM10.24 14.080h11.52c0.353 0 0.64 0.287 0.64 0.64v7.68c0 0.353-0.287 0.64-0.64 0.64h-11.52c-0.353 0-0.64-0.287-0.64-0.64v-7.68c0-0.353 0.287-0.64 0.64-0.64z"></path>
<path d="M14.863 8.525c2.020 0 3.014 0.81 3.201 2.554 0.038 0.351 0.353 0.606 0.705 0.568s0.606-0.353 0.568-0.705c-0.26-2.423-1.825-3.698-4.474-3.698-2.653 0-4.215 1.311-4.474 3.795l-0.003 0.066v2.747c0 0.353 0.287 0.64 0.64 0.64s0.64-0.287 0.64-0.64v-2.713c0.197-1.789 1.194-2.615 3.197-2.615z"></path>
</symbol>
<symbol id="icon-lock" viewBox="0 0 32 32">
<title>icon-lock</title>
<path d="M16 32c-8.837 0-16-7.163-16-16s7.163-16 16-16c8.837 0 16 7.163 16 16s-7.163 16-16 16zM16 30.72c8.13 0 14.72-6.59 14.72-14.72s-6.59-14.72-14.72-14.72c-8.13 0-14.72 6.59-14.72 14.72s6.59 14.72 14.72 14.72z"></path>
<path d="M10.88 21.76h10.24v-6.4h-10.24v6.4zM10.24 14.080h11.52c0.353 0 0.64 0.287 0.64 0.64v7.68c0 0.353-0.287 0.64-0.64 0.64h-11.52c-0.353 0-0.64-0.287-0.64-0.64v-7.68c0-0.353 0.287-0.64 0.64-0.64z"></path>
<path d="M19.2 14.080v-1.92c0-1.767-1.433-3.2-3.2-3.2s-3.2 1.433-3.2 3.2v1.92h6.4zM16 7.68c2.474 0 4.48 2.006 4.48 4.48v3.2h-8.96v-3.2c0-2.474 2.006-4.48 4.48-4.48z"></path>
</symbol>
<symbol id="icon-edit" viewBox="0 0 32 32">
<title>icon-edit</title>
<path d="M16 32c-8.837 0-16-7.163-16-16s7.163-16 16-16c8.837 0 16 7.163 16 16s-7.163 16-16 16zM16 30.72c8.13 0 14.72-6.59 14.72-14.72s-6.59-14.72-14.72-14.72c-8.13 0-14.72 6.59-14.72 14.72s6.59 14.72 14.72 14.72z"></path>
<path d="M11.916 15.815l3.386 4.66 8.802-6.395-3.386-4.66-8.802 6.395zM21.378 8.15l4.138 5.695c0.208 0.286 0.144 0.686-0.142 0.894l-9.838 7.147c-0.286 0.208-0.686 0.144-0.894-0.142l-4.138-5.695c-0.208-0.286-0.144-0.686 0.142-0.894l9.838-7.147c0.286-0.208 0.686-0.144 0.894 0.142z"></path>
<path d="M11.764 15.822c0.146-0.322 0.003-0.701-0.319-0.847s-0.701-0.003-0.847 0.319l-2.85 6.302c-0.2 0.442 0.146 0.937 0.63 0.902l6.843-0.502c0.352-0.026 0.617-0.333 0.591-0.685s-0.333-0.617-0.685-0.591l-5.77 0.423 2.406-5.322z"></path>
<path d="M17.774 10.386l4.815 6.389 1.022-0.77-4.815-6.389z"></path>
</symbol>
<symbol id="icon-shut-down" viewBox="0 0 32 32">
<title>icon-shut-down</title>
<path d="M16 32c-8.837 0-16-7.163-16-16s7.163-16 16-16c8.837 0 16 7.163 16 16s-7.163 16-16 16zM16 30.72c8.13 0 14.72-6.59 14.72-14.72s-6.59-14.72-14.72-14.72c-8.13 0-14.72 6.59-14.72 14.72s6.59 14.72 14.72 14.72z"></path>
<path d="M13.066 9.012c-4.036 1.797-5.852 6.526-4.054 10.562s6.526 5.852 10.562 4.054c4.036-1.797 5.852-6.526 4.054-10.562-0.847-1.903-2.375-3.367-4.264-4.144-0.327-0.134-0.701 0.021-0.835 0.348s0.021 0.701 0.348 0.835c1.587 0.653 2.869 1.881 3.581 3.481 1.51 3.39-0.015 7.363-3.406 8.872s-7.363-0.015-8.872-3.406c-1.51-3.39 0.015-7.363 3.406-8.872 0.323-0.144 0.468-0.522 0.324-0.845s-0.522-0.468-0.845-0.324z"></path>
<path d="M15.68 8.313v7.388c0 0.353 0.287 0.64 0.64 0.64s0.64-0.287 0.64-0.64v-7.388c0-0.353-0.287-0.64-0.64-0.64s-0.64 0.287-0.64 0.64z"></path>
</symbol>
<symbol id="icon-information" viewBox="0 0 32 32">
<title>icon-information</title>
<path d="M16 32c-8.837 0-16-7.163-16-16s7.163-16 16-16c8.837 0 16 7.163 16 16s-7.163 16-16 16zM16 30.72c8.13 0 14.72-6.59 14.72-14.72s-6.59-14.72-14.72-14.72c-8.13 0-14.72 6.59-14.72 14.72s6.59 14.72 14.72 14.72z"></path>
<path d="M16 13.44c-1.414 0-2.56-1.146-2.56-2.56s1.146-2.56 2.56-2.56c1.414 0 2.56 1.146 2.56 2.56s-1.146 2.56-2.56 2.56zM16 12.16c0.707 0 1.28-0.573 1.28-1.28s-0.573-1.28-1.28-1.28c-0.707 0-1.28 0.573-1.28 1.28s0.573 1.28 1.28 1.28z"></path>
<path d="M15.36 16v6.4h1.28v-6.4h-1.28zM15.36 14.72h1.28c0.707 0 1.28 0.573 1.28 1.28v6.4c0 0.707-0.573 1.28-1.28 1.28h-1.28c-0.707 0-1.28-0.573-1.28-1.28v-6.4c0-0.707 0.573-1.28 1.28-1.28z"></path>
</symbol>
<symbol id="icon-logout" viewBox="0 0 32 32">
<title>icon-logout</title>
<path fill="none" stroke="#000" stroke-width="1.28" stroke-miterlimit="4" stroke-linecap="round" stroke-linejoin="miter" style="stroke: var(--color1, #000)" d="M31.36 16c0 8.483-6.877 15.36-15.36 15.36s-15.36-6.877-15.36-15.36c0-8.483 6.877-15.36 15.36-15.36s15.36 6.877 15.36 15.36z"></path>
<path fill="none" stroke="#000" stroke-width="1.28" stroke-miterlimit="4" stroke-linecap="butt" stroke-linejoin="miter" style="stroke: var(--color1, #000)" d="M22.4 8.96v14.080c0 0.353-0.287 0.64-0.64 0.64h-10.88c-0.353 0-0.64-0.287-0.64-0.64v-14.080c0-0.353 0.287-0.64 0.64-0.64h10.88c0.353 0 0.64 0.287 0.64 0.64z"></path>
<path fill="none" stroke="#000" stroke-width="1.28" stroke-miterlimit="4" stroke-linecap="round" stroke-linejoin="round" style="stroke: var(--color1, #000)" d="M18.56 21.727l5.093-5.219-4.988-4.988"></path>
<path d="M22.72 15.68h-9.286c-0.353 0-0.64 0.287-0.64 0.64s0.287 0.64 0.64 0.64h9.286c0.353 0 0.64-0.287 0.64-0.64s-0.287-0.64-0.64-0.64z"></path>
</symbol>
<symbol id="icon-remove" viewBox="0 0 32 32">
<title>icon-remove</title>
<path fill="none" stroke="#000" stroke-width="1.28" stroke-miterlimit="4" stroke-linecap="round" stroke-linejoin="miter" style="stroke: var(--color1, #000)" d="M31.36 16c0 8.483-6.877 15.36-15.36 15.36s-15.36-6.877-15.36-15.36c0-8.483 6.877-15.36 15.36-15.36s15.36 6.877 15.36 15.36z"></path>
<path fill="none" stroke="#000" stroke-width="1.28" stroke-miterlimit="4" stroke-linecap="butt" stroke-linejoin="miter" style="stroke: var(--color1, #000)" d="M10.995 14.080l1.707 10.24h7.236l1.707-10.24h-10.649z"></path>
<path fill="none" stroke="#000" stroke-width="1.28" stroke-miterlimit="4" stroke-linecap="square" stroke-linejoin="miter" style="stroke: var(--color1, #000)" d="M17.6 24.096l1.465-9.836"></path>
<path d="M15.858 24.002l-1.465-9.836-1.266 0.188 1.465 9.836 1.266-0.189zM14.592 24.19l1.266-0.189-1.465-9.836-1.266 0.188 1.465 9.837z"></path>
<path fill="none" stroke="#000" stroke-width="1.28" stroke-miterlimit="4" stroke-linecap="butt" stroke-linejoin="miter" style="stroke: var(--color1, #000)" d="M11.002 10.474l9.273-2.485c0.341-0.091 0.692 0.111 0.784 0.453l0.166 0.618c0.091 0.341-0.111 0.692-0.453 0.784l-9.273 2.485c-0.341 0.091-0.692-0.111-0.784-0.453l-0.166-0.618c-0.091-0.341 0.111-0.692 0.453-0.784z"></path>
</symbol>
<symbol id="icon-settings" viewBox="0 0 32 32">
<title>icon-settings</title>
<path d="M16 32c-8.837 0-16-7.163-16-16s7.163-16 16-16c8.837 0 16 7.163 16 16s-7.163 16-16 16zM16 30.72c8.13 0 14.72-6.59 14.72-14.72s-6.59-14.72-14.72-14.72c-8.13 0-14.72 6.59-14.72 14.72s6.59 14.72 14.72 14.72z"></path>
<path d="M23.171 16.551c1.376-2.384 1.002-4.947-1.051-7.573-0.279-0.357-0.832-0.319-1.058 0.074l-1.635 2.832-1.822-1.052c-0.306-0.177-0.698-0.072-0.874 0.234s-0.072 0.698 0.234 0.874l2.376 1.372c0.306 0.177 0.698 0.072 0.874-0.234l1.458-2.525c1.241 1.928 1.354 3.688 0.39 5.358-1.088 1.885-2.5 2.475-4.41 1.866-0.287-0.091-0.598 0.029-0.748 0.29l-3.377 5.849c-0.177 0.306-0.072 0.698 0.234 0.874s0.698 0.072 0.874-0.234l3.129-5.42c2.268 0.534 4.118-0.353 5.406-2.585z"></path>
<path d="M12.086 10.151c1.376-2.384 3.784-3.341 7.084-2.876 0.449 0.063 0.692 0.561 0.465 0.954l-1.635 2.832 1.822 1.052c0.306 0.177 0.411 0.568 0.234 0.874s-0.568 0.411-0.874 0.234l-2.376-1.372c-0.306-0.177-0.411-0.568-0.234-0.874l1.458-2.525c-2.29-0.11-3.871 0.671-4.835 2.342-1.088 1.885-0.893 3.402 0.589 4.753 0.222 0.203 0.274 0.533 0.123 0.793l-3.377 5.849c-0.177 0.306-0.568 0.411-0.874 0.234s-0.411-0.568-0.234-0.874l3.129-5.42c-1.597-1.697-1.753-3.743-0.464-5.975z"></path>
</symbol>
<symbol id="icon-upload" viewBox="0 0 32 32">
<title>icon-upload</title>
<path d="M11.81 14.105c-0.253 0.247-0.658 0.242-0.905-0.011s-0.242-0.658 0.011-0.905l5.219-5.093c0.251-0.245 0.652-0.242 0.9 0.005l4.988 4.988c0.25 0.25 0.25 0.655 0 0.905s-0.655 0.25-0.905 0l-4.541-4.541-4.766 4.651z"></path>
<path d="M17.152 17.605v-8.005c0-0.353-0.287-0.64-0.64-0.64s-0.64 0.287-0.64 0.64v8.005c0 0.353 0.287 0.64 0.64 0.64s0.64-0.287 0.64-0.64z"></path>
<path d="M16 32c-8.837 0-16-7.163-16-16s7.163-16 16-16c8.837 0 16 7.163 16 16s-7.163 16-16 16zM16 30.72c8.13 0 14.72-6.59 14.72-14.72s-6.59-14.72-14.72-14.72c-8.13 0-14.72 6.59-14.72 14.72s6.59 14.72 14.72 14.72z"></path>
<path d="M23.039 21.080h-14.079v-4.391h1.924c0.353 0 0.64-0.287 0.64-0.64s-0.287-0.64-0.64-0.64h-2.564c-0.353 0-0.64 0.287-0.64 0.64v5.671c0 0.353 0.287 0.64 0.64 0.64h15.359c0.353 0 0.64-0.287 0.64-0.64v-5.72c0-0.353-0.287-0.64-0.64-0.64h-2.574c-0.353 0-0.64 0.287-0.64 0.64s0.287 0.64 0.64 0.64h1.934v4.44z"></path>
</symbol>
<symbol id="icon-stats" viewBox="0 0 32 32">
<title>icon-stats</title>
<path d="M16 32c-8.837 0-16-7.163-16-16s7.163-16 16-16c8.837 0 16 7.163 16 16s-7.163 16-16 16zM16 30.72c8.13 0 14.72-6.59 14.72-14.72s-6.59-14.72-14.72-14.72c-8.13 0-14.72 6.59-14.72 14.72s6.59 14.72 14.72 14.72z"></path>
<path d="M11.84 21.44v-5.795c0-0.353-0.287-0.64-0.64-0.64s-0.64 0.287-0.64 0.64v5.795c0 0.353 0.287 0.64 0.64 0.64s0.64-0.287 0.64-0.64z"></path>
<path d="M16.96 21.44v-8.006c0-0.353-0.287-0.64-0.64-0.64s-0.64 0.287-0.64 0.64v8.006c0 0.353 0.287 0.64 0.64 0.64s0.64-0.287 0.64-0.64z"></path>
<path d="M22.080 21.44v-11.205c0-0.353-0.287-0.64-0.64-0.64s-0.64 0.287-0.64 0.64v11.205c0 0.353 0.287 0.64 0.64 0.64s0.64-0.287 0.64-0.64z"></path>
</symbol>
<symbol id="icon-picture" viewBox="0 0 32 32">
<title>icon-picture</title>
<path d="M16 32c-8.837 0-16-7.163-16-16s7.163-16 16-16c8.837 0 16 7.163 16 16s-7.163 16-16 16zM16 30.72c8.13 0 14.72-6.59 14.72-14.72s-6.59-14.72-14.72-14.72c-8.13 0-14.72 6.59-14.72 14.72s6.59 14.72 14.72 14.72z"></path>
<path fill="none" stroke="#000" stroke-width="1.28" stroke-miterlimit="4" stroke-linecap="butt" stroke-linejoin="miter" style="stroke: var(--color1, #000)" d="M8.96 10.88h14.72c0.353 0 0.64 0.287 0.64 0.64v10.24c0 0.353-0.287 0.64-0.64 0.64h-14.72c-0.353 0-0.64-0.287-0.64-0.64v-10.24c0-0.353 0.287-0.64 0.64-0.64z"></path>
<path fill="none" stroke="#000" stroke-width="1.28" stroke-miterlimit="4" stroke-linecap="round" stroke-linejoin="round" style="stroke: var(--color1, #000)" d="M8.32 17.644l4.626-2.924 4.066 3.2 3.988-0.977 2.68 0.977"></path>
<path fill="none" stroke="#000" stroke-width="1.28" stroke-miterlimit="4" stroke-linecap="butt" stroke-linejoin="miter" style="stroke: var(--color1, #000)" d="M20.48 14.4c0 0.884-0.716 1.6-1.6 1.6s-1.6-0.716-1.6-1.6c0-0.884 0.716-1.6 1.6-1.6s1.6 0.716 1.6 1.6z"></path>
</symbol>
<symbol id="icon-file" viewBox="0 0 32 32">
<title>icon-file</title>
<path d="M16 32c-8.837 0-16-7.163-16-16s7.163-16 16-16c8.837 0 16 7.163 16 16s-7.163 16-16 16zM16 30.72c8.13 0 14.72-6.59 14.72-14.72s-6.59-14.72-14.72-14.72c-8.13 0-14.72 6.59-14.72 14.72s6.59 14.72 14.72 14.72z"></path>
<path d="M10.88 22.4h10.24v-10.312l-1.8-1.848h-8.44v12.16zM10.24 8.96h9.62l2.54 2.608v11.472c0 0.353-0.287 0.64-0.64 0.64h-11.52c-0.353 0-0.64-0.287-0.64-0.64v-13.44c0-0.353 0.287-0.64 0.64-0.64z"></path>
<path d="M13.12 14.4h5.795c0.353 0 0.64-0.287 0.64-0.64s-0.287-0.64-0.64-0.64h-5.795c-0.353 0-0.64 0.287-0.64 0.64s0.287 0.64 0.64 0.64z"></path>
<path d="M13.12 16.96h5.795c0.353 0 0.64-0.287 0.64-0.64s-0.287-0.64-0.64-0.64h-5.795c-0.353 0-0.64 0.287-0.64 0.64s0.287 0.64 0.64 0.64z"></path>
<path d="M13.12 19.52h5.795c0.353 0 0.64-0.287 0.64-0.64s-0.287-0.64-0.64-0.64h-5.795c-0.353 0-0.64 0.287-0.64 0.64s0.287 0.64 0.64 0.64z"></path>
</symbol>
<symbol id="icon-file-new" viewBox="0 0 32 32">
<title>icon-file-new</title>
<path d="M15.36 12.975v7.339c0 0.353 0.287 0.64 0.64 0.64s0.64-0.287 0.64-0.64v-7.339c0-0.353-0.287-0.64-0.64-0.64s-0.64 0.287-0.64 0.64z"></path>
<path d="M19.2 16h-7.040c-0.353 0-0.64 0.287-0.64 0.64s0.287 0.64 0.64 0.64h7.040c0.353 0 0.64-0.287 0.64-0.64s-0.287-0.64-0.64-0.64z"></path>
<path d="M16 32c-8.837 0-16-7.163-16-16s7.163-16 16-16c8.837 0 16 7.163 16 16s-7.163 16-16 16zM16 30.72c8.13 0 14.72-6.59 14.72-14.72s-6.59-14.72-14.72-14.72c-8.13 0-14.72 6.59-14.72 14.72s6.59 14.72 14.72 14.72z"></path>
<path d="M10.88 22.4h10.24v-10.312l-1.8-1.848h-8.44v12.16zM10.24 8.96h9.62l2.54 2.608v11.472c0 0.353-0.287 0.64-0.64 0.64h-11.52c-0.353 0-0.64-0.287-0.64-0.64v-13.44c0-0.353 0.287-0.64 0.64-0.64z"></path>
</symbol>
<symbol id="icon-live" viewBox="0 0 32 32">
<title>icon-live</title>
<path d="M16 32c-8.837 0-16-7.163-16-16s7.163-16 16-16c8.837 0 16 7.163 16 16s-7.163 16-16 16zM16 30.72c8.13 0 14.72-6.59 14.72-14.72s-6.59-14.72-14.72-14.72c-8.13 0-14.72 6.59-14.72 14.72s6.59 14.72 14.72 14.72z"></path>
<path d="M16.32 24.96c-4.772 0-8.64-3.868-8.64-8.64s3.868-8.64 8.64-8.64c4.772 0 8.64 3.868 8.64 8.64s-3.868 8.64-8.64 8.64zM16.32 23.68c4.065 0 7.36-3.295 7.36-7.36s-3.295-7.36-7.36-7.36c-4.065 0-7.36 3.295-7.36 7.36s3.295 7.36 7.36 7.36z"></path>
<path d="M16.32 21.12c-2.651 0-4.8-2.149-4.8-4.8s2.149-4.8 4.8-4.8c2.651 0 4.8 2.149 4.8 4.8s-2.149 4.8-4.8 4.8zM16.32 19.84c1.944 0 3.52-1.576 3.52-3.52s-1.576-3.52-3.52-3.52c-1.944 0-3.52 1.576-3.52 3.52s1.576 3.52 3.52 3.52z"></path>
</symbol>
<symbol id="icon-location" viewBox="0 0 32 32">
<title>icon-location</title>
<path d="M16 32c-8.837 0-16-7.163-16-16s7.163-16 16-16c8.837 0 16 7.163 16 16s-7.163 16-16 16zM16 30.72c8.13 0 14.72-6.59 14.72-14.72s-6.59-14.72-14.72-14.72c-8.13 0-14.72 6.59-14.72 14.72s6.59 14.72 14.72 14.72z"></path>
<path d="M16.846 24.684l-0.526 0.761-0.526-0.761c-3.701-5.348-5.554-9.089-5.554-11.349 0-3.471 2.716-6.295 6.080-6.295s6.080 2.824 6.080 6.295c0 2.26-1.853 6-5.554 11.349zM21.12 13.335c0-2.775-2.155-5.015-4.8-5.015s-4.8 2.24-4.8 5.015c0 1.808 1.599 5.128 4.8 9.852 3.201-4.724 4.8-8.044 4.8-9.852z"></path>
<path d="M16.32 16c-1.591 0-2.88-1.289-2.88-2.88s1.289-2.88 2.88-2.88c1.591 0 2.88 1.289 2.88 2.88s-1.289 2.88-2.88 2.88zM16.32 14.72c0.884 0 1.6-0.716 1.6-1.6s-0.716-1.6-1.6-1.6c-0.884 0-1.6 0.716-1.6 1.6s0.716 1.6 1.6 1.6z"></path>
</symbol>
<symbol id="icon-time" viewBox="0 0 32 32">
<title>icon-time</title>
<path d="M16 32c-8.837 0-16-7.163-16-16s7.163-16 16-16c8.837 0 16 7.163 16 16s-7.163 16-16 16zM16 30.72c8.13 0 14.72-6.59 14.72-14.72s-6.59-14.72-14.72-14.72c-8.13 0-14.72 6.59-14.72 14.72s6.59 14.72 14.72 14.72z"></path>
<path d="M16 24.96c-4.948 0-8.96-4.012-8.96-8.96s4.012-8.96 8.96-8.96c4.948 0 8.96 4.012 8.96 8.96s-4.012 8.96-8.96 8.96zM16 23.68c4.242 0 7.68-3.438 7.68-7.68s-3.438-7.68-7.68-7.68c-4.242 0-7.68 3.438-7.68 7.68s3.438 7.68 7.68 7.68z"></path>
<path d="M16.64 15.552c0-1.035 0.023-2.589 0.068-4.658 0.008-0.353-0.272-0.646-0.626-0.654s-0.646 0.272-0.654 0.626c-0.046 2.078-0.068 3.64-0.068 4.686 0 0.529 0.006 0.929 0.018 1.202 0.006 0.148 0.015 0.262 0.026 0.35 0.008 0.063 0.018 0.118 0.034 0.173 0.073 0.252 0.169 0.416 0.516 0.479 0.32 0.058 0.869-0.19 4.25-1.794 0.319-0.152 0.455-0.533 0.304-0.853s-0.533-0.455-0.853-0.304c-1.238 0.588-2.178 1.026-2.817 1.314-0.068 0.031-0.133 0.060-0.195 0.087-0.003-0.188-0.004-0.406-0.004-0.655z"></path>
</symbol>
<symbol id="icon-forward" viewBox="0 0 32 32">
<title>icon-forward</title>
<path d="M16 32c-8.837 0-16-7.163-16-16s7.163-16 16-16c8.837 0 16 7.163 16 16s-7.163 16-16 16zM16 30.72c8.13 0 14.72-6.59 14.72-14.72s-6.59-14.72-14.72-14.72c-8.13 0-14.72 6.59-14.72 14.72s6.59 14.72 14.72 14.72z"></path>
<path d="M16.822 21.28c-0.247 0.253-0.242 0.658 0.011 0.905s0.658 0.242 0.905-0.011l5.093-5.219c0.245-0.251 0.242-0.652-0.006-0.9l-4.988-4.988c-0.25-0.25-0.655-0.25-0.905 0s-0.25 0.655 0 0.905l4.541 4.541-4.651 4.766z"></path>
<path d="M10.541 10.496c0-0.353-0.287-0.64-0.64-0.64s-0.64 0.287-0.64 0.64v6.013c0 0.353 0.287 0.64 0.64 0.64h11.546c0.353 0 0.64-0.287 0.64-0.64s-0.287-0.64-0.64-0.64h-10.906v-5.373z"></path>
</symbol>
<symbol id="icon-rewind" viewBox="0 0 32 32">
<title>icon-rewind</title>
<path d="M16 32c-8.837 0-16-7.163-16-16s7.163-16 16-16c8.837 0 16 7.163 16 16s-7.163 16-16 16zM16 30.72c8.13 0 14.72-6.59 14.72-14.72s-6.59-14.72-14.72-14.72c-8.13 0-14.72 6.59-14.72 14.72s6.59 14.72 14.72 14.72z"></path>
<path d="M15.178 11.967c0.247-0.253 0.242-0.658-0.011-0.905s-0.658-0.242-0.905 0.011l-5.093 5.219c-0.245 0.251-0.242 0.652 0.005 0.9l4.988 4.988c0.25 0.25 0.655 0.25 0.905 0s0.25-0.655 0-0.905l-4.541-4.541 4.651-4.766z"></path>
<path d="M21.459 10.496c0-0.353 0.287-0.64 0.64-0.64s0.64 0.287 0.64 0.64v6.013c0 0.353-0.287 0.64-0.64 0.64h-11.546c-0.353 0-0.64-0.287-0.64-0.64s0.287-0.64 0.64-0.64h10.906v-5.373z"></path>
</symbol>
<symbol id="icon-calendar" viewBox="0 0 32 32">
<title>icon-calendar</title>
<path d="M16 32c-8.837 0-16-7.163-16-16s7.163-16 16-16c8.837 0 16 7.163 16 16s-7.163 16-16 16zM16 30.72c8.13 0 14.72-6.59 14.72-14.72s-6.59-14.72-14.72-14.72c-8.13 0-14.72 6.59-14.72 14.72s6.59 14.72 14.72 14.72z"></path>
<path d="M10.24 21.76h12.16v-10.88h-12.16v10.88zM9.6 9.6h13.44c0.353 0 0.64 0.287 0.64 0.64v12.16c0 0.353-0.287 0.64-0.64 0.64h-13.44c-0.353 0-0.64-0.287-0.64-0.64v-12.16c0-0.353 0.287-0.64 0.64-0.64z"></path>
<path d="M9.28 14.4h14.080v-1.28h-14.080z"></path>
<path d="M9.28 18.88h14.080v-1.28h-14.080z"></path>
<path d="M13.76 13.12v9.625h1.28v-9.625z"></path>
<path d="M18.24 13.12v9.625h1.28v-9.625z"></path>
<path d="M18.24 8.302v2.922c0 0.353 0.287 0.64 0.64 0.64s0.64-0.287 0.64-0.64v-2.922c0-0.353-0.287-0.64-0.64-0.64s-0.64 0.287-0.64 0.64z"></path>
<path d="M13.76 8.302v2.922c0 0.353 0.287 0.64 0.64 0.64s0.64-0.287 0.64-0.64v-2.922c0-0.353-0.287-0.64-0.64-0.64s-0.64 0.287-0.64 0.64z"></path>
</symbol>
<symbol id="icon-password" viewBox="0 0 32 32">
<title>icon-password</title>
<path d="M16 32c-8.837 0-16-7.163-16-16s7.163-16 16-16c8.837 0 16 7.163 16 16s-7.163 16-16 16zM16 30.72c8.13 0 14.72-6.59 14.72-14.72s-6.59-14.72-14.72-14.72c-8.13 0-14.72 6.59-14.72 14.72s6.59 14.72 14.72 14.72z"></path>
<path d="M10.88 18.24c-1.237 0-2.24-1.003-2.24-2.24s1.003-2.24 2.24-2.24c1.237 0 2.24 1.003 2.24 2.24s-1.003 2.24-2.24 2.24zM10.88 16.96c0.53 0 0.96-0.43 0.96-0.96s-0.43-0.96-0.96-0.96c-0.53 0-0.96 0.43-0.96 0.96s0.43 0.96 0.96 0.96z"></path>
<path d="M20.362 13.76c0.203 0 0.395 0.097 0.515 0.26l0.33 0.449 0.257-0.41c0.117-0.186 0.322-0.299 0.542-0.299h0.896c0.158 0 0.31 0.058 0.427 0.164l0.424 0.38 0.446-0.387c0.279-0.242 0.704-0.198 0.928 0.095l1.3 1.702c0.137 0.179 0.169 0.417 0.086 0.626l-0.854 2.138c-0.097 0.243-0.333 0.403-0.594 0.403h-8.93c-0.982 1.573-2.712 2.56-4.616 2.56-3.004 0-5.44-2.436-5.44-5.44s2.436-5.44 5.44-5.44c2.167 0 4.091 1.279 4.959 3.2h3.883zM16.047 15.040c-0.271 0-0.513-0.171-0.603-0.427-0.583-1.648-2.146-2.773-3.923-2.773-2.297 0-4.16 1.863-4.16 4.16s1.863 4.16 4.16 4.16c1.559 0 2.965-0.865 3.681-2.219 0.111-0.21 0.329-0.341 0.566-0.341h8.866l0.558-1.398-0.666-0.872-0.358 0.311c-0.244 0.211-0.607 0.208-0.847-0.007l-0.661-0.593h-0.297l-0.569 0.906c-0.24 0.382-0.79 0.402-1.057 0.039l-0.696-0.945h-3.992z"></path>
</symbol>
<symbol id="icon-next" viewBox="0 0 32 32">
<title>icon-next</title>
<path d="M16 32c-8.837 0-16-7.163-16-16s7.163-16 16-16c8.837 0 16 7.163 16 16s-7.163 16-16 16zM16 30.72c8.13 0 14.72-6.59 14.72-14.72s-6.59-14.72-14.72-14.72c-8.13 0-14.72 6.59-14.72 14.72s6.59 14.72 14.72 14.72z"></path>
<path d="M16.182 20.64c-0.247 0.253-0.242 0.658 0.011 0.905s0.658 0.242 0.905-0.011l5.093-5.219c0.245-0.251 0.242-0.652-0.006-0.9l-4.988-4.988c-0.25-0.25-0.655-0.25-0.905 0s-0.25 0.655 0 0.905l4.541 4.541-4.651 4.766z"></path>
<path d="M20.498 15.36h-11.538c-0.353 0-0.64 0.287-0.64 0.64s0.287 0.64 0.64 0.64h11.538c0.353 0 0.64-0.287 0.64-0.64s-0.287-0.64-0.64-0.64z"></path>
</symbol>
<symbol id="icon-previous" viewBox="0 0 32 32">
<title>icon-previous</title>
<path d="M16 32c-8.837 0-16-7.163-16-16s7.163-16 16-16c8.837 0 16 7.163 16 16s-7.163 16-16 16zM16 30.72c8.13 0 14.72-6.59 14.72-14.72s-6.59-14.72-14.72-14.72c-8.13 0-14.72 6.59-14.72 14.72s6.59 14.72 14.72 14.72z"></path>
<path d="M15.178 11.327c0.247-0.253 0.242-0.658-0.011-0.905s-0.658-0.242-0.905 0.011l-5.093 5.219c-0.245 0.251-0.242 0.652 0.005 0.9l4.988 4.988c0.25 0.25 0.655 0.25 0.905 0s0.25-0.655 0-0.905l-4.541-4.541 4.651-4.766z"></path>
<path d="M21.778 15.36h-11.538c-0.353 0-0.64 0.287-0.64 0.64s0.287 0.64 0.64 0.64h11.538c0.353 0 0.64-0.287 0.64-0.64s-0.287-0.64-0.64-0.64z"></path>
</symbol>
<symbol id="icon-menu-burger" viewBox="0 0 32 32">
<title>icon-burger-menu</title>
<path d="M16 32c-8.837 0-16-7.163-16-16s7.163-16 16-16c8.837 0 16 7.163 16 16s-7.163 16-16 16zM16 30.72c8.13 0 14.72-6.59 14.72-14.72s-6.59-14.72-14.72-14.72c-8.13 0-14.72 6.59-14.72 14.72s6.59 14.72 14.72 14.72z"></path>
<path d="M22.415 15.36h-13.455c-0.353 0-0.64 0.287-0.64 0.64s0.287 0.64 0.64 0.64h13.455c0.353 0 0.64-0.287 0.64-0.64s-0.287-0.64-0.64-0.64z"></path>
<path d="M22.415 11.52h-13.455c-0.353 0-0.64 0.287-0.64 0.64s0.287 0.64 0.64 0.64h13.455c0.353 0 0.64-0.287 0.64-0.64s-0.287-0.64-0.64-0.64z"></path>
<path d="M22.415 19.2h-13.455c-0.353 0-0.64 0.287-0.64 0.64s0.287 0.64 0.64 0.64h13.455c0.353 0 0.64-0.287 0.64-0.64s-0.287-0.64-0.64-0.64z"></path>
</symbol>
<symbol id="icon-menu-burger" viewBox="0 0 32 32">
<title>icon-menu-dots</title>
<path d="M16 32c-8.837 0-16-7.163-16-16s7.163-16 16-16c8.837 0 16 7.163 16 16s-7.163 16-16 16zM16 30.72c8.13 0 14.72-6.59 14.72-14.72s-6.59-14.72-14.72-14.72c-8.13 0-14.72 6.59-14.72 14.72s6.59 14.72 14.72 14.72z"></path>
<path d="M16 12.16c-0.707 0-1.28-0.573-1.28-1.28s0.573-1.28 1.28-1.28c0.707 0 1.28 0.573 1.28 1.28s-0.573 1.28-1.28 1.28z"></path>
<path d="M16 17.28c-0.707 0-1.28-0.573-1.28-1.28s0.573-1.28 1.28-1.28c0.707 0 1.28 0.573 1.28 1.28s-0.573 1.28-1.28 1.28z"></path>
<path d="M16 22.4c-0.707 0-1.28-0.573-1.28-1.28s0.573-1.28 1.28-1.28c0.707 0 1.28 0.573 1.28 1.28s-0.573 1.28-1.28 1.28z"></path>
</symbol>
<symbol id="icon-menu-grid" viewBox="0 0 32 32">
<title>icon-menu-grid</title>
<path d="M16 32c-8.837 0-16-7.163-16-16s7.163-16 16-16c8.837 0 16 7.163 16 16s-7.163 16-16 16zM16 30.72c8.13 0 14.72-6.59 14.72-14.72s-6.59-14.72-14.72-14.72c-8.13 0-14.72 6.59-14.72 14.72s6.59 14.72 14.72 14.72z"></path>
<path d="M10.88 14.080h3.2v-3.2h-3.2v3.2zM10.24 9.6h4.48c0.353 0 0.64 0.287 0.64 0.64v4.48c0 0.353-0.287 0.64-0.64 0.64h-4.48c-0.353 0-0.64-0.287-0.64-0.64v-4.48c0-0.353 0.287-0.64 0.64-0.64z"></path>
<path d="M10.88 17.92v3.2h3.2v-3.2h-3.2zM10.24 16.64h4.48c0.353 0 0.64 0.287 0.64 0.64v4.48c0 0.353-0.287 0.64-0.64 0.64h-4.48c-0.353 0-0.64-0.287-0.64-0.64v-4.48c0-0.353 0.287-0.64 0.64-0.64z"></path>
<path d="M17.92 14.080h3.2v-3.2h-3.2v3.2zM17.28 9.6h4.48c0.353 0 0.64 0.287 0.64 0.64v4.48c0 0.353-0.287 0.64-0.64 0.64h-4.48c-0.353 0-0.64-0.287-0.64-0.64v-4.48c0-0.353 0.287-0.64 0.64-0.64z"></path>
<path d="M17.92 21.12h3.2v-3.2h-3.2v3.2zM17.28 16.64h4.48c0.353 0 0.64 0.287 0.64 0.64v4.48c0 0.353-0.287 0.64-0.64 0.64h-4.48c-0.353 0-0.64-0.287-0.64-0.64v-4.48c0-0.353 0.287-0.64 0.64-0.64z"></path>
</symbol>
<symbol id="icon-teacher" viewBox="0 0 32 32">
<title>icon-teacher</title>
<path d="M16 32c-8.837 0-16-7.163-16-16s7.163-16 16-16c8.837 0 16 7.163 16 16s-7.163 16-16 16zM16 30.72c8.13 0 14.72-6.59 14.72-14.72s-6.59-14.72-14.72-14.72c-8.13 0-14.72 6.59-14.72 14.72s6.59 14.72 14.72 14.72z"></path>
<path d="M15.7 9.825c0.188 0.1 0.413 0.1 0.6 0l-0.3 0.159-0.3-0.159zM23.716 14.080l-7.716-4.096-7.716 4.095 7.716 4.096 7.716-4.095zM15.7 19.465l-9.081-4.82c-0.312-0.166-0.431-0.553-0.265-0.865 0.060-0.113 0.152-0.205 0.265-0.265l9.081-4.82c0.188-0.1 0.412-0.1 0.6 0l9.081 4.82c0.312 0.166 0.431 0.553 0.265 0.865-0.060 0.113-0.152 0.205-0.265 0.265l-9.081 4.82c-0.188 0.1-0.412 0.1-0.6 0z"></path>
<path d="M16.192 22.399c-1.67 0.026-3.439-0.601-5.312-1.901v-4.399c0-0.353-0.287-0.64-0.64-0.64s-0.64 0.287-0.64 0.64v4.729c0 0.205 0.098 0.398 0.265 0.518 2.18 1.578 4.297 2.363 6.347 2.331 2.060-0.032 4.053-0.888 5.967-2.543 0.141-0.122 0.221-0.298 0.221-0.484v-4.652c0-0.353-0.287-0.64-0.64-0.64s-0.64 0.287-0.64 0.64v4.355c-1.626 1.344-3.265 2.018-4.928 2.044z"></path>
<path d="M16.035 14.932l3.84-2.56c0.294-0.196 0.374-0.593 0.177-0.888s-0.593-0.374-0.888-0.178l-3.84 2.56c-0.294 0.196-0.374 0.593-0.178 0.888s0.593 0.374 0.888 0.178z"></path>
<path d="M21.12 23.040v-1.28c0-0.353-0.287-0.64-0.64-0.64s-0.64 0.287-0.64 0.64v1.28c0 0.353 0.287 0.64 0.64 0.64s0.64-0.287 0.64-0.64z"></path>
</symbol>
<symbol id="icon-play" viewBox="0 0 32 32">
<title>icon-play</title>
<path d="M16 32c-8.837 0-16-7.163-16-16s7.163-16 16-16c8.837 0 16 7.163 16 16s-7.163 16-16 16zM16 30.72c8.13 0 14.72-6.59 14.72-14.72s-6.59-14.72-14.72-14.72c-8.13 0-14.72 6.59-14.72 14.72s6.59 14.72 14.72 14.72z"></path>
<path d="M13.44 12.076v7.848l5.886-3.924-5.886-3.924zM20.835 16.532l-7.68 5.12c-0.425 0.284-0.995-0.021-0.995-0.532v-10.24c0-0.511 0.57-0.816 0.995-0.533l7.68 5.12c0.38 0.253 0.38 0.812 0 1.065z"></path>
</symbol>
<symbol id="icon-right" viewBox="0 0 32 32">
<title>icon-right</title>
<path d="M16 32c-8.837 0-16-7.163-16-16s7.163-16 16-16c8.837 0 16 7.163 16 16s-7.163 16-16 16zM16 30.72c8.13 0 14.72-6.59 14.72-14.72s-6.59-14.72-14.72-14.72c-8.13 0-14.72 6.59-14.72 14.72s6.59 14.72 14.72 14.72z"></path>
<path d="M12.982 11.327c-0.247-0.253-0.242-0.658 0.011-0.905s0.658-0.242 0.905 0.011l5.093 5.219c0.245 0.251 0.242 0.652-0.006 0.9l-4.988 4.988c-0.25 0.25-0.655 0.25-0.905 0s-0.25-0.655 0-0.905l4.541-4.541-4.651-4.766z"></path>
</symbol>
<symbol id="icon-left" viewBox="0 0 32 32">
<title>icon-left</title>
<path d="M16 32c-8.837 0-16-7.163-16-16s7.163-16 16-16c8.837 0 16 7.163 16 16s-7.163 16-16 16zM16 30.72c8.13 0 14.72-6.59 14.72-14.72s-6.59-14.72-14.72-14.72c-8.13 0-14.72 6.59-14.72 14.72s6.59 14.72 14.72 14.72z"></path>
<path d="M17.71 11.338c0.253-0.247 0.257-0.652 0.010-0.905s-0.652-0.257-0.905-0.010l-5.103 4.989c-0.255 0.249-0.257 0.658-0.006 0.91l5.21 5.219c0.25 0.25 0.655 0.251 0.905 0.001s0.251-0.655 0.001-0.905l-4.753-4.762 4.64-4.537z"></path>
</symbol>
<symbol id="icon-up" viewBox="0 0 32 32">
<title>icon-up</title>
<path d="M16 32c-8.837 0-16-7.163-16-16s7.163-16 16-16c8.837 0 16 7.163 16 16s-7.163 16-16 16zM16 30.72c8.13 0 14.72-6.59 14.72-14.72s-6.59-14.72-14.72-14.72c-8.13 0-14.72 6.59-14.72 14.72s6.59 14.72 14.72 14.72z"></path>
<path d="M20.641 18.303c0.254 0.246 0.659 0.24 0.905-0.014s0.24-0.659-0.014-0.905l-5.219-5.056c-0.25-0.243-0.649-0.24-0.896 0.005l-4.988 4.952c-0.251 0.249-0.252 0.654-0.003 0.905s0.654 0.252 0.905 0.003l4.543-4.51 4.768 4.619z"></path>
</symbol>
<symbol id="icon-down" viewBox="0 0 32 32">
<title>icon-down</title>
<path d="M16 32c-8.837 0-16-7.163-16-16s7.163-16 16-16c8.837 0 16 7.163 16 16s-7.163 16-16 16zM16 30.72c8.13 0 14.72-6.59 14.72-14.72s-6.59-14.72-14.72-14.72c-8.13 0-14.72 6.59-14.72 14.72s6.59 14.72 14.72 14.72z"></path>
<path d="M11.327 13.622c-0.253-0.247-0.658-0.242-0.905 0.011s-0.242 0.658 0.011 0.905l5.219 5.093c0.251 0.245 0.652 0.242 0.9-0.006l4.988-4.988c0.25-0.25 0.25-0.655 0-0.905s-0.655-0.25-0.905 0l-4.541 4.541-4.766-4.651z"></path>
</symbol>
<symbol id="icon-user" viewBox="0 0 32 32">
<title>icon-user</title>
<path d="M16 32c-8.837 0-16-7.163-16-16s7.163-16 16-16c8.837 0 16 7.163 16 16s-7.163 16-16 16zM16 30.72c8.13 0 14.72-6.59 14.72-14.72s-6.59-14.72-14.72-14.72c-8.13 0-14.72 6.59-14.72 14.72s6.59 14.72 14.72 14.72z"></path>
<path d="M10.32 23.040l-0.043-0.593c-0.338-4.624 1.742-7.087 6.044-7.087s6.382 2.462 6.044 7.087l-0.043 0.593h-12.001zM21.117 21.76c0.092-3.499-1.452-5.12-4.797-5.12s-4.889 1.621-4.797 5.12h9.594z"></path>
<path d="M16.64 15.36c-2.121 0-3.84-1.719-3.84-3.84s1.719-3.84 3.84-3.84c2.121 0 3.84 1.719 3.84 3.84s-1.719 3.84-3.84 3.84zM16.64 14.080c1.414 0 2.56-1.146 2.56-2.56s-1.146-2.56-2.56-2.56c-1.414 0-2.56 1.146-2.56 2.56s1.146 2.56 2.56 2.56z"></path>
</symbol>
<symbol id="icon-ok" viewBox="0 0 32 32">
<title>icon-ok</title>
<path d="M16 32c-8.837 0-16-7.163-16-16s7.163-16 16-16c8.837 0 16 7.163 16 16s-7.163 16-16 16zM16 30.72c8.13 0 14.72-6.59 14.72-14.72s-6.59-14.72-14.72-14.72c-8.13 0-14.72 6.59-14.72 14.72s6.59 14.72 14.72 14.72z"></path>
<path d="M9.913 17.807c-0.25-0.25-0.655-0.25-0.905 0s-0.25 0.655 0 0.905l3.273 3.273c0.25 0.25 0.655 0.25 0.905 0l10.306-10.306c0.25-0.25 0.25-0.655 0-0.905s-0.655-0.25-0.905 0l-9.853 9.853-2.821-2.821z"></path>
</symbol>
<symbol id="icon-search" viewBox="0 0 32 32">
<title>icon-search</title>
<path d="M16 32c-8.837 0-16-7.163-16-16s7.163-16 16-16c8.837 0 16 7.163 16 16s-7.163 16-16 16zM16 30.72c8.13 0 14.72-6.59 14.72-14.72s-6.59-14.72-14.72-14.72c-8.13 0-14.72 6.59-14.72 14.72s6.59 14.72 14.72 14.72z"></path>
<path d="M14.080 18.56c-2.474 0-4.48-2.006-4.48-4.48s2.006-4.48 4.48-4.48c2.474 0 4.48 2.006 4.48 4.48s-2.006 4.48-4.48 4.48zM14.080 17.28c1.767 0 3.2-1.433 3.2-3.2s-1.433-3.2-3.2-3.2c-1.767 0-3.2 1.433-3.2 3.2s1.433 3.2 3.2 3.2z"></path>
<path d="M17.858 16.857l5.009 5.236c0.254 0.265 0.226 0.67-0.063 0.903s-0.728 0.208-0.982-0.058l-5.009-5.236c-0.254-0.265-0.226-0.67 0.063-0.903s0.728-0.208 0.982 0.058z"></path>
</symbol>
<symbol id="icon-close" viewBox="0 0 32 32">
<title>icon-close</title>
<path d="M16 32c-8.837 0-16-7.163-16-16s7.163-16 16-16c8.837 0 16 7.163 16 16s-7.163 16-16 16zM16 30.72c8.13 0 14.72-6.59 14.72-14.72s-6.59-14.72-14.72-14.72c-8.13 0-14.72 6.59-14.72 14.72s6.59 14.72 14.72 14.72z"></path>
<path d="M20.619 10.796l-9.514 9.514c-0.25 0.25-0.25 0.655 0 0.905s0.655 0.25 0.905 0l9.514-9.514c0.25-0.25 0.25-0.655 0-0.905s-0.655-0.25-0.905 0z"></path>
<path d="M21.124 20.398l-9.514-9.514c-0.25-0.25-0.655-0.25-0.905 0s-0.25 0.655 0 0.905l9.514 9.514c0.25 0.25 0.655 0.25 0.905 0s0.25-0.655 0-0.905z"></path>
</symbol>
<symbol id="icon-add" viewBox="0 0 32 32">
<title>icon-add</title>
<path d="M16 32c-8.837 0-16-7.163-16-16s7.163-16 16-16c8.837 0 16 7.163 16 16s-7.163 16-16 16zM16 30.72c8.13 0 14.72-6.59 14.72-14.72s-6.59-14.72-14.72-14.72c-8.13 0-14.72 6.59-14.72 14.72s6.59 14.72 14.72 14.72z"></path>
<path d="M15.36 9.6v13.455c0 0.353 0.287 0.64 0.64 0.64s0.64-0.287 0.64-0.64v-13.455c0-0.353-0.287-0.64-0.64-0.64s-0.64 0.287-0.64 0.64z"></path>
<path d="M22.415 15.36h-13.455c-0.353 0-0.64 0.287-0.64 0.64s0.287 0.64 0.64 0.64h13.455c0.353 0 0.64-0.287 0.64-0.64s-0.287-0.64-0.64-0.64z"></path>
</symbol>
<symbol id="icon-chat-bubble" viewBox="0 0 32 32">
<title>icon-chat-bubble</title>
<path d="M16 32c-8.837 0-16-7.163-16-16s7.163-16 16-16c8.837 0 16 7.163 16 16s-7.163 16-16 16zM16 30.72c8.13 0 14.72-6.59 14.72-14.72s-6.59-14.72-14.72-14.72c-8.13 0-14.72 6.59-14.72 14.72s6.59 14.72 14.72 14.72z"></path>
<path d="M6.849 16c0-5.302 4.298-9.6 9.6-9.6s9.6 4.298 9.6 9.6c0 5.302-4.298 9.6-9.6 9.6-1.77 0-3.47-0.48-4.951-1.373-0.158 0.079-0.431 0.215-0.553 0.268-0.366 0.16-0.742 0.279-1.159 0.354-0.434 0.078-1.11 0.010-2.094-0.19l-1.292-0.262 1.005-0.853c0.573-0.487 0.944-0.824 1.092-0.989 0.221-0.247 0.362-0.448 0.429-0.59-1.336-1.683-2.077-3.768-2.077-5.965zM9.56 23.59c0.313-0.056 0.595-0.146 0.873-0.268 0.163-0.071 0.743-0.367 0.578-0.285 0.394-0.194 0.608-0.251 0.941-0.036 1.331 0.857 2.879 1.319 4.497 1.319 4.595 0 8.32-3.725 8.32-8.32s-3.725-8.32-8.32-8.32c-4.595 0-8.32 3.725-8.32 8.32 0 1.963 0.681 3.819 1.906 5.3 0.448 0.541 0.17 1.264-0.584 2.108-0.049 0.055-0.111 0.119-0.184 0.191 0.127 0.006 0.225 0.003 0.293-0.010z"></path>
</symbol>
<symbol id="icon-twitter" viewBox="0 0 32 32">
<title>icon-twitter</title>
<path d="M16 32c-8.837 0-16-7.163-16-16s7.163-16 16-16c8.837 0 16 7.163 16 16s-7.163 16-16 16zM16 30.72c8.13 0 14.72-6.59 14.72-14.72s-6.59-14.72-14.72-14.72c-8.13 0-14.72 6.59-14.72 14.72s6.59 14.72 14.72 14.72z"></path>
<path d="M20.201 22.854c-3.973 2.887-8.269 2.428-12.712-1.303-0.375-0.315-0.272-0.917 0.186-1.089 0.96-0.361 1.714-0.512 2.297-0.434 0.042 0.006 0.088 0.009 0.136 0.009-0.706-0.76-1.401-2.009-2.13-3.744-1.261-3.003-0.739-5.27 1.605-6.537 0.275-0.149 0.618-0.077 0.81 0.171 0.927 1.195 1.761 2.132 2.496 2.808 0.507 0.466 1.135 0.679 1.921 0.634 0.162-1.591 1.019-2.816 2.53-3.616 1.679-0.889 3.266-0.635 4.601 0.723l1.992 0.457c0.479 0.11 0.66 0.696 0.327 1.057l-1.198 1.301c1.953 3.525 0.962 6.784-2.862 9.563zM19.449 21.819c3.462-2.516 4.18-5.194 2.278-8.277-0.151-0.244-0.12-0.559 0.074-0.77l0.772-0.838-1.105-0.254c-0.126-0.029-0.241-0.096-0.328-0.191-0.974-1.062-1.982-1.249-3.2-0.605-1.27 0.672-1.877 1.663-1.877 3.055 0 0.311-0.223 0.576-0.529 0.63-1.4 0.247-2.591-0.048-3.511-0.893-0.695-0.639-1.456-1.476-2.284-2.512-1.306 0.944-1.508 2.423-0.58 4.633 1.052 2.504 1.99 3.779 2.588 3.84 0.656 0.067 0.794 0.963 0.189 1.224-0.838 0.362-1.542 0.515-2.132 0.435-0.136-0.018-0.313-0.009-0.531 0.029 3.643 2.664 6.989 2.809 10.176 0.493z"></path>
</symbol>
<symbol id="icon-linkedin" viewBox="0 0 32 32">
<title>icon-linkedin</title>
<path d="M16 32c-8.837 0-16-7.163-16-16s7.163-16 16-16c8.837 0 16 7.163 16 16s-7.163 16-16 16zM16 30.72c8.13 0 14.72-6.59 14.72-14.72s-6.59-14.72-14.72-14.72c-8.13 0-14.72 6.59-14.72 14.72s6.59 14.72 14.72 14.72z"></path>
<path d="M12.16 22.080v-9.28c0-0.353-0.287-0.64-0.64-0.64s-0.64 0.287-0.64 0.64v9.28c0 0.353 0.287 0.64 0.64 0.64s0.64-0.287 0.64-0.64z"></path>
<path d="M16 22.080v-9.28c0-0.353-0.287-0.64-0.64-0.64s-0.64 0.287-0.64 0.64v9.28c0 0.353 0.287 0.64 0.64 0.64s0.64-0.287 0.64-0.64z"></path>
<path d="M11.52 11.84c-0.53 0-0.96-0.43-0.96-0.96s0.43-0.96 0.96-0.96c0.53 0 0.96 0.43 0.96 0.96s-0.43 0.96-0.96 0.96zM11.52 11.2c0.177 0 0.32-0.143 0.32-0.32s-0.143-0.32-0.32-0.32c-0.177 0-0.32 0.143-0.32 0.32s0.143 0.32 0.32 0.32z"></path>
<path d="M20.685 22.012c0 0.353 0.287 0.64 0.64 0.64s0.64-0.287 0.64-0.64v-7.066l-0.008-0.103c-0.301-1.836-1.516-2.816-3.46-2.816-1.929 0-3.227 1.024-3.768 2.952-0.095 0.34 0.103 0.694 0.444 0.789s0.694-0.103 0.789-0.444c0.388-1.385 1.19-2.017 2.535-2.017 1.312 0 1.981 0.525 2.188 1.693v7.011z"></path>
</symbol>
<symbol id="icon-facebook" viewBox="0 0 32 32">
<title>icon-facebook</title>
<path d="M16 32c-8.837 0-16-7.163-16-16s7.163-16 16-16c8.837 0 16 7.163 16 16s-7.163 16-16 16zM16 30.72c8.13 0 14.72-6.59 14.72-14.72s-6.59-14.72-14.72-14.72c-8.13 0-14.72 6.59-14.72 14.72s6.59 14.72 14.72 14.72z"></path>
<path d="M16.122 22.891v-9.911c0-2.768 1.159-3.961 3.688-3.844 0.353 0.016 0.653-0.257 0.669-0.61s-0.257-0.653-0.61-0.669c-3.281-0.151-5.027 1.645-5.027 5.123v9.911c0 0.353 0.287 0.64 0.64 0.64s0.64-0.287 0.64-0.64z"></path>
<path d="M12.8 15.36h5.377c0.353 0 0.64-0.287 0.64-0.64s-0.287-0.64-0.64-0.64h-5.377c-0.353 0-0.64 0.287-0.64 0.64s0.287 0.64 0.64 0.64z"></path>
</symbol>
<symbol id="icon-chat" viewBox="0 0 32 32">
<title>icon-chat</title>
<path d="M16 32c-8.837 0-16-7.163-16-16s7.163-16 16-16c8.837 0 16 7.163 16 16s-7.163 16-16 16zM16 30.72c8.13 0 14.72-6.59 14.72-14.72s-6.59-14.72-14.72-14.72c-8.13 0-14.72 6.59-14.72 14.72s6.59 14.72 14.72 14.72z"></path>
<path d="M8.32 10.601v9.881c1.272 0.047 2.319 1.036 2.43 2.314 0.006 0.068 0.012 0.133 0.018 0.195 0.012-0.008 0.025-0.015 0.037-0.023 0.715-0.442 1.715-1.116 2.992-2.019 0.432-0.305 0.948-0.469 1.477-0.469h8.044c0.166 0 0.278-0.006 0.347-0.014 0.009-0.069 0.014-0.18 0.014-0.347v-9.518c0-0.166-0.006-0.278-0.014-0.347-0.069-0.009-0.18-0.014-0.347-0.014h-14.638c-0.166 0-0.278 0.006-0.347 0.014-0.009 0.069-0.014 0.18-0.014 0.347zM8.681 8.96h14.638c0.571 0 0.777 0.059 0.986 0.171s0.372 0.275 0.484 0.484c0.112 0.209 0.171 0.415 0.171 0.986v9.518c0 0.571-0.059 0.777-0.171 0.986s-0.275 0.372-0.484 0.484c-0.209 0.112-0.416 0.171-0.986 0.171h-8.044c-0.265 0-0.523 0.082-0.739 0.235-2.594 1.833-4.077 2.75-4.448 2.75-0.303 0-0.508-0.613-0.614-1.838-0.056-0.648-0.599-1.146-1.25-1.146-0.654 0-1.185-0.53-1.185-1.185v-9.974c0-0.571 0.059-0.777 0.171-0.986s0.275-0.372 0.484-0.484c0.209-0.112 0.415-0.171 0.986-0.171z"></path>
</symbol>
<symbol id="icon-phone" viewBox="0 0 32 32">
<title>icon-phone</title>
<path d="M16 32c-8.837 0-16-7.163-16-16s7.163-16 16-16c8.837 0 16 7.163 16 16s-7.163 16-16 16zM16 30.72c8.13 0 14.72-6.59 14.72-14.72s-6.59-14.72-14.72-14.72c-8.13 0-14.72 6.59-14.72 14.72s6.59 14.72 14.72 14.72z"></path>
<path d="M20.86 20.588l-1.783-2.491-2.16 1.796-4.872-6.199 2.555-1.874-1.624-2.293-1.73 1.106c0.065 2.926 0.961 5.347 2.685 7.29 1.714 1.931 3.603 3.377 5.668 4.345l1.261-1.68zM19.316 16.233l3.131 4.373-2.434 3.242-0.462-0.198c-2.423-1.040-4.616-2.668-6.577-4.877-2.008-2.262-3.012-5.101-3.012-8.488v-0.35l3.353-2.144 3.057 4.317-2.503 1.836 3.241 4.124 2.206-1.835z"></path>
</symbol>
<symbol id="icon-world" viewBox="0 0 32 32">
<title>icon-world</title>
<path d="M16 32c-8.837 0-16-7.163-16-16s7.163-16 16-16c8.837 0 16 7.163 16 16s-7.163 16-16 16zM16 30.72c8.13 0 14.72-6.59 14.72-14.72s-6.59-14.72-14.72-14.72c-8.13 0-14.72 6.59-14.72 14.72s6.59 14.72 14.72 14.72z"></path>
<path fill="none" stroke="#000" stroke-width="1.28" stroke-miterlimit="4" stroke-linecap="round" stroke-linejoin="miter" style="stroke: var(--color1, #000)" d="M26.24 16.32c0 5.832-4.728 10.56-10.56 10.56s-10.56-4.728-10.56-10.56c0-5.832 4.728-10.56 10.56-10.56s10.56 4.728 10.56 10.56z"></path>
<path d="M16.308 27.441c-0.31 0.17-0.699 0.057-0.869-0.252s-0.057-0.699 0.252-0.869c4.018-2.209 6.024-5.578 6.068-10.188 0.043-4.613-1.711-7.85-5.292-9.81-0.31-0.17-0.424-0.559-0.254-0.869s0.559-0.424 0.869-0.254c4.010 2.194 6.006 5.875 5.958 10.945-0.048 5.072-2.307 8.866-6.731 11.298z"></path>
<path d="M15.052 27.441c0.31 0.17 0.699 0.057 0.869-0.252s0.057-0.699-0.252-0.869c-4.018-2.209-6.024-5.578-6.068-10.188-0.043-4.613 1.711-7.85 5.292-9.81 0.31-0.17 0.424-0.559 0.254-0.869s-0.559-0.424-0.869-0.254c-4.010 2.194-6.006 5.875-5.958 10.945 0.048 5.072 2.307 8.866 6.731 11.298z"></path>
<path d="M15.36 5.98c0-0.353 0.287-0.64 0.64-0.64s0.64 0.287 0.64 0.64v20.722c0 0.353-0.287 0.64-0.64 0.64s-0.64-0.287-0.64-0.64v-20.722z"></path>
<path d="M6.627 12.758c-0.33 0.125-0.7-0.041-0.825-0.371s0.041-0.7 0.371-0.825c2.333-0.885 5.579-1.322 9.752-1.322 4.183 0 7.274 0.438 9.295 1.335 0.323 0.143 0.469 0.522 0.325 0.845s-0.522 0.469-0.845 0.325c-1.823-0.81-4.756-1.225-8.776-1.225-4.031 0-7.134 0.417-9.298 1.238z"></path>
<path d="M6.627 22.998c-0.33 0.125-0.7-0.041-0.825-0.371s0.041-0.7 0.371-0.825c2.333-0.885 5.579-1.322 9.752-1.322 4.183 0 7.274 0.438 9.295 1.335 0.323 0.143 0.469 0.522 0.325 0.845s-0.522 0.469-0.845 0.325c-1.823-0.81-4.756-1.225-8.776-1.225-4.031 0-7.134 0.417-9.298 1.238z"></path>
<path d="M5.12 16.32c-0.353 0-0.64-0.287-0.64-0.64s0.287-0.64 0.64-0.64h20.48c0.353 0 0.64 0.287 0.64 0.64s-0.287 0.64-0.64 0.64h-20.48z"></path>
</symbol>
<symbol id="icon-message" viewBox="0 0 32 32">
<title>icon-message</title>
<path d="M22.629 21.12l-4.942-4.885-2.139 1.799-1.633-1.415-4.847 4.502h13.561zM23.68 20.412v-9.217l-5.038 4.237 5.038 4.98zM7.060 21.344c-0.013-0.073-0.020-0.148-0.020-0.224v-10.24c0-0.1 0.012-0.198 0.033-0.292-0.082-0.213-0.046-0.464 0.114-0.649 0.149-0.172 0.369-0.245 0.579-0.214 0.168-0.081 0.355-0.126 0.554-0.126h15.36c0.707 0 1.28 0.573 1.28 1.28v10.24c0 0.707-0.573 1.28-1.28 1.28h-15.36c-0.262 0-0.506-0.079-0.709-0.214-0.153-0.013-0.301-0.081-0.413-0.202-0.165-0.178-0.21-0.424-0.138-0.639zM8.32 20.068l4.622-4.293-4.622-4.007v8.299zM9.25 10.88l6.311 5.47 6.505-5.47h-12.816zM16 32c-8.837 0-16-7.163-16-16s7.163-16 16-16c8.837 0 16 7.163 16 16s-7.163 16-16 16zM16 30.72c8.13 0 14.72-6.59 14.72-14.72s-6.59-14.72-14.72-14.72c-8.13 0-14.72 6.59-14.72 14.72s6.59 14.72 14.72 14.72z"></path>
</symbol>
</defs>
</svg>
